<svg id="svg" version="1.1" xmlns="http://www.w3.org/2000/svg" xmlns:xlink="http://www.w3.org/1999/xlink" width="400" height="400" viewBox="0, 0, 400,400"><g id="svgg"><path id="path0" d="M314.800 155.776 C 314.800 156.093,314.980 156.464,315.200 156.600 C 315.420 156.736,315.600 156.477,315.600 156.024 C 315.600 155.571,315.420 155.200,315.200 155.200 C 314.980 155.200,314.800 155.459,314.800 155.776 M27.000 276.371 C 25.161 276.815,23.924 277.556,22.500 279.066 L 21.200 280.445 21.200 290.192 L 21.200 299.939 22.217 301.147 C 24.620 304.003,25.302 304.179,34.800 304.400 C 44.882 304.634,44.400 304.456,44.400 307.962 C 44.400 312.267,44.807 312.127,32.573 312.035 C 25.214 311.979,22.174 312.090,21.767 312.428 C 21.179 312.915,20.913 321.586,21.443 322.967 C 21.657 323.526,23.189 323.600,34.543 323.602 C 54.457 323.605,54.537 323.542,54.486 307.800 C 54.458 299.244,54.147 297.980,51.629 296.200 L 49.931 295.000 41.295 294.956 C 31.314 294.905,31.200 294.863,31.200 291.225 C 31.200 287.653,31.373 287.600,43.077 287.600 L 53.103 287.600 53.597 286.407 C 54.308 284.690,53.991 276.892,53.189 276.385 C 52.502 275.950,28.796 275.938,27.000 276.371 M60.973 276.519 C 60.255 276.921,60.102 321.495,60.814 322.826 C 61.185 323.519,61.687 323.600,65.600 323.600 C 71.103 323.600,70.794 324.138,70.823 314.526 C 70.851 305.515,71.071 303.849,72.260 303.678 C 73.117 303.555,74.400 306.182,74.400 308.057 C 74.400 308.450,74.694 309.633,75.054 310.686 C 75.414 311.739,75.938 313.590,76.219 314.800 C 76.795 317.280,77.784 320.365,78.623 322.300 L 79.187 323.600 83.940 323.600 L 88.693 323.600 89.739 320.700 C 90.314 319.105,91.035 316.707,91.340 315.371 C 91.646 314.035,92.084 312.590,92.314 312.160 C 92.544 311.731,92.940 310.235,93.193 308.837 C 93.447 307.438,93.976 305.823,94.370 305.247 C 94.763 304.671,95.401 303.681,95.786 303.047 C 96.998 301.056,97.187 302.533,96.960 312.200 C 96.687 323.819,96.495 323.326,101.410 323.600 L 105.000 323.800 105.109 341.400 C 105.240 362.694,106.175 360.400,97.370 360.400 C 90.019 360.400,90.400 360.085,90.400 366.174 C 90.400 372.256,89.988 372.000,99.780 372.000 C 116.207 372.000,115.633 373.012,115.589 344.140 C 115.572 333.278,115.668 324.213,115.803 323.995 C 115.937 323.778,117.522 323.597,119.324 323.594 C 124.130 323.585,123.768 324.426,124.000 312.715 L 124.200 302.600 125.194 302.600 C 125.964 302.600,126.404 303.006,127.146 304.400 C 130.920 311.492,133.770 316.656,134.238 317.247 C 134.479 317.551,134.776 318.084,134.899 318.432 C 135.022 318.779,135.775 320.084,136.573 321.332 L 138.025 323.600 143.625 323.600 C 150.712 323.600,150.758 323.453,145.961 316.000 C 145.324 315.010,144.512 313.570,144.156 312.800 C 143.801 312.030,143.376 311.310,143.213 311.200 C 143.050 311.090,142.133 309.560,141.175 307.800 C 140.217 306.040,139.213 304.374,138.943 304.098 C 138.673 303.821,138.328 303.204,138.176 302.725 C 138.024 302.247,137.383 301.141,136.750 300.268 C 135.188 298.111,135.225 296.334,136.885 293.778 C 138.856 290.746,138.948 290.598,139.756 289.152 C 140.172 288.409,140.937 287.291,141.456 286.669 C 141.975 286.047,142.400 285.304,142.400 285.018 C 142.400 284.732,142.648 284.292,142.951 284.041 C 143.254 283.789,144.450 282.038,145.608 280.150 C 148.159 275.989,148.180 276.014,142.189 276.006 C 136.441 275.998,136.511 275.945,131.800 284.012 C 131.140 285.142,130.410 286.277,130.177 286.533 C 129.945 286.790,128.955 288.491,127.977 290.313 C 126.414 293.229,126.080 293.613,125.200 293.513 L 124.200 293.400 124.000 285.132 C 123.890 280.585,123.650 276.715,123.467 276.532 C 123.060 276.126,115.673 276.088,114.700 276.487 C 113.836 276.842,113.597 320.899,114.451 322.495 C 115.357 324.188,111.496 325.350,108.316 324.342 C 106.659 323.816,106.607 323.750,106.800 322.399 C 107.358 318.493,106.996 276.768,106.400 276.369 C 105.777 275.952,93.059 276.007,92.638 276.428 C 92.513 276.554,91.941 278.444,91.367 280.628 C 90.792 282.813,89.968 285.950,89.534 287.600 C 89.100 289.250,88.413 292.040,88.006 293.800 C 87.599 295.560,87.056 297.540,86.800 298.200 C 86.543 298.860,86.073 300.746,85.756 302.391 C 85.033 306.138,84.757 306.419,83.268 304.930 C 82.410 304.072,81.966 303.101,81.643 301.375 C 81.398 300.069,80.844 297.830,80.412 296.400 C 79.980 294.970,79.057 291.640,78.361 289.000 C 77.665 286.360,76.759 283.045,76.348 281.633 C 75.937 280.221,75.600 278.770,75.600 278.409 C 75.600 276.412,74.878 276.202,68.006 276.200 C 64.454 276.199,61.289 276.342,60.973 276.519 M172.700 276.424 C 172.098 276.782,172.000 277.484,172.000 281.446 C 172.000 287.776,171.851 287.600,177.214 287.600 C 183.789 287.600,183.200 285.816,183.200 305.738 C 183.200 325.341,182.679 323.600,188.541 323.600 C 193.579 323.600,193.200 325.108,193.200 305.054 C 193.200 285.765,192.630 287.600,198.618 287.600 C 204.532 287.600,204.520 287.612,204.336 281.648 C 204.246 278.725,204.025 277.063,203.680 276.719 C 203.008 276.048,173.803 275.770,172.700 276.424 M246.513 276.281 C 245.180 276.539,245.154 277.053,245.282 300.915 C 245.418 326.151,244.857 323.585,250.238 323.594 C 255.727 323.603,255.214 326.046,255.214 299.911 C 255.214 287.695,255.109 277.428,254.981 277.095 C 254.610 276.128,249.727 275.659,246.513 276.281 M262.800 276.391 C 262.117 276.823,261.878 319.854,262.541 323.037 L 262.882 324.673 261.050 325.186 C 258.628 325.864,258.742 324.690,258.882 347.600 L 259.000 367.000 260.133 368.670 C 261.874 371.235,263.470 371.731,270.577 371.919 C 277.859 372.111,277.603 372.297,277.594 366.824 C 277.586 362.017,277.669 362.120,273.664 361.940 C 269.075 361.735,269.200 361.985,269.200 352.986 C 269.200 344.221,269.107 344.400,273.651 344.400 C 277.469 344.400,277.600 344.254,277.600 340.000 C 277.600 335.734,277.477 335.600,273.582 335.600 C 269.501 335.600,269.200 335.267,269.200 330.753 C 269.200 328.235,269.008 326.993,268.450 325.899 L 267.701 324.429 269.150 323.962 C 271.644 323.160,271.600 323.302,271.600 315.977 C 271.600 312.278,271.786 308.763,272.014 308.164 L 272.427 307.076 273.625 308.224 C 274.284 308.855,275.273 310.278,275.823 311.386 C 276.373 312.494,277.359 314.300,278.015 315.400 C 278.671 316.500,279.476 317.980,279.805 318.690 C 280.133 319.399,280.976 320.794,281.678 321.790 L 282.954 323.600 288.704 323.600 L 294.454 323.600 294.184 322.700 C 294.035 322.205,293.499 321.080,292.993 320.200 C 292.487 319.320,291.308 317.250,290.373 315.600 C 289.438 313.950,288.369 312.150,287.999 311.600 C 285.809 308.350,285.200 307.292,285.200 306.740 C 285.200 306.401,284.844 305.801,284.408 305.407 C 283.070 304.197,282.950 302.211,284.109 300.489 C 284.660 299.670,285.176 298.820,285.256 298.600 C 285.335 298.380,286.284 296.850,287.365 295.200 C 292.835 286.851,292.876 287.430,286.795 287.306 C 281.803 287.204,281.179 287.420,279.964 289.669 C 277.475 294.278,273.360 300.400,272.753 300.400 C 271.840 300.400,271.600 297.696,271.600 287.421 L 271.600 276.493 270.700 276.252 C 269.276 275.870,263.462 275.973,262.800 276.391 M210.800 287.489 C 206.608 289.064,205.994 291.315,206.031 304.950 L 206.061 316.200 207.131 318.780 C 208.102 321.125,208.397 321.463,210.346 322.480 L 212.491 323.600 224.656 323.600 L 236.820 323.600 237.210 322.574 C 237.424 322.010,237.600 320.148,237.600 318.436 C 237.600 313.813,238.051 314.000,226.883 314.000 C 216.460 314.000,216.800 314.105,216.800 310.875 C 216.800 308.492,216.936 308.457,226.689 308.322 L 235.549 308.200 236.777 307.023 C 238.455 305.414,238.796 303.857,238.796 297.800 C 238.796 291.254,238.447 289.929,236.317 288.386 L 234.680 287.200 223.040 287.232 C 216.638 287.249,211.130 287.365,210.800 287.489 M301.566 287.732 C 300.381 288.269,299.304 289.268,298.303 290.761 C 297.674 291.698,297.605 293.134,297.603 305.400 L 297.601 319.000 298.999 320.571 C 301.389 323.256,302.060 323.384,313.800 323.384 C 330.713 323.384,330.400 323.727,330.400 305.220 C 330.400 286.645,330.900 287.182,313.651 287.232 C 306.141 287.255,302.269 287.415,301.566 287.732 M340.200 287.765 C 336.564 289.381,336.307 290.620,336.125 307.400 C 335.939 324.620,335.556 323.357,341.011 323.517 C 346.773 323.686,346.400 324.597,346.400 310.338 L 346.400 298.764 347.382 297.782 C 348.258 296.906,348.703 296.800,351.505 296.800 C 356.534 296.800,356.178 295.807,356.327 310.259 C 356.476 324.712,356.067 323.600,361.234 323.600 L 365.169 323.600 365.612 321.954 C 365.890 320.925,366.034 316.542,365.997 310.254 C 365.965 304.724,365.953 299.718,365.969 299.129 C 366.022 297.289,366.922 296.800,370.255 296.800 C 375.947 296.800,375.998 296.931,376.006 311.487 C 376.013 324.735,375.582 323.659,380.830 323.515 L 384.994 323.400 385.250 322.200 C 385.633 320.403,385.617 294.467,385.231 292.473 C 384.877 290.642,383.372 288.732,381.520 287.764 C 379.975 286.957,342.016 286.957,340.200 287.765 M228.311 297.023 C 229.465 297.831,229.494 299.919,228.371 301.346 C 227.290 302.720,217.952 303.018,217.261 301.700 C 216.438 300.128,216.321 298.379,216.974 297.384 C 217.790 296.137,226.645 295.855,228.311 297.023 M319.364 298.031 C 320.380 299.238,320.400 299.378,320.400 305.415 C 320.400 313.166,320.067 313.591,314.000 313.591 C 307.955 313.591,307.600 313.145,307.600 305.565 C 307.600 296.868,307.592 296.880,314.064 296.832 L 318.329 296.800 319.364 298.031 M160.758 325.242 C 159.795 326.205,159.569 368.922,160.517 370.800 C 160.994 371.745,161.228 371.806,164.751 371.916 C 169.863 372.074,169.600 372.502,169.600 364.031 C 169.600 356.918,169.771 356.000,171.093 356.000 C 171.385 356.000,171.736 356.315,171.872 356.700 C 172.008 357.085,172.433 357.760,172.817 358.200 C 173.202 358.640,174.300 360.489,175.258 362.309 C 176.216 364.129,177.360 366.299,177.800 367.130 C 178.749 368.924,180.392 371.281,180.981 371.694 C 181.211 371.856,183.701 371.991,186.513 371.994 C 192.356 372.001,192.630 371.839,191.242 369.201 C 190.779 368.321,190.005 366.835,189.522 365.900 C 189.040 364.965,188.525 364.110,188.379 364.000 C 188.136 363.818,183.009 355.166,181.741 352.800 C 180.976 351.374,181.069 350.442,182.136 348.822 C 182.651 348.040,183.416 346.880,183.836 346.244 C 184.256 345.608,184.780 344.809,185.000 344.467 C 185.220 344.126,186.185 342.671,187.144 341.234 C 190.610 336.042,190.413 335.600,184.640 335.600 C 180.058 335.600,179.299 335.911,177.991 338.326 C 177.263 339.672,173.818 345.120,172.105 347.635 C 171.410 348.655,170.516 348.738,169.896 347.840 C 169.729 347.598,169.611 342.563,169.633 336.651 C 169.665 328.137,169.562 325.797,169.137 325.397 C 168.150 324.470,161.651 324.349,160.758 325.242 M123.162 336.438 C 122.287 337.313,122.105 343.840,122.933 344.667 C 123.116 344.850,127.511 345.042,132.700 345.094 C 143.161 345.197,144.000 345.415,144.000 348.021 C 144.000 350.050,143.398 350.191,134.239 350.302 L 125.800 350.404 124.200 351.541 C 121.541 353.431,121.114 354.769,121.139 361.141 C 121.181 371.438,122.052 372.010,137.677 371.983 C 149.221 371.964,150.609 371.671,152.599 368.840 L 153.800 367.132 153.800 354.266 C 153.800 334.748,154.634 335.600,135.527 335.600 C 124.357 335.600,123.974 335.626,123.162 336.438 M197.300 335.997 C 196.284 336.423,196.265 336.526,196.359 341.180 C 196.444 345.422,195.303 344.979,206.531 345.127 C 217.400 345.270,217.600 345.322,217.600 348.019 C 217.600 350.102,217.384 350.154,207.800 350.392 C 196.648 350.668,196.291 350.875,195.190 357.703 C 194.828 359.946,194.817 361.505,195.144 363.936 C 196.181 371.647,196.498 371.800,211.400 371.800 C 224.705 371.800,225.027 371.721,226.917 368.000 L 228.035 365.800 227.917 353.170 L 227.800 340.540 226.702 338.881 C 224.679 335.827,224.603 335.812,210.600 335.710 C 203.504 335.658,197.815 335.781,197.300 335.997 M239.149 335.975 C 234.494 336.883,234.250 337.818,234.091 355.401 C 233.928 373.347,233.483 372.000,239.569 372.000 C 244.431 372.000,243.988 373.333,243.995 358.700 C 244.001 344.817,243.700 345.600,249.026 345.600 C 254.007 345.600,254.000 345.607,254.000 340.666 C 254.000 338.006,253.831 336.391,253.520 336.080 C 252.990 335.550,241.750 335.468,239.149 335.975 M283.862 336.331 C 282.934 337.357,282.908 343.651,283.829 344.571 C 284.364 345.107,285.840 345.200,293.800 345.200 L 303.142 345.200 303.971 346.254 C 306.546 349.527,305.143 350.162,294.807 350.400 L 286.135 350.600 284.667 351.721 C 282.125 353.661,281.817 354.667,281.811 361.037 C 281.803 371.320,282.785 371.975,298.200 371.952 C 310.028 371.935,311.302 371.674,313.354 368.842 L 314.600 367.122 314.600 353.651 L 314.600 340.180 313.110 338.361 C 310.991 335.774,309.915 335.600,296.031 335.600 C 285.391 335.600,284.474 335.655,283.862 336.331 M142.526 357.260 C 144.357 358.223,144.625 360.698,143.014 361.754 C 141.850 362.517,133.683 362.686,132.355 361.976 C 130.544 361.006,130.782 357.576,132.695 357.077 C 134.221 356.679,141.686 356.818,142.526 357.260 M216.822 357.538 C 217.947 358.448,218.037 360.454,217.005 361.595 C 216.057 362.642,207.566 362.812,206.138 361.812 C 204.545 360.696,204.758 357.912,206.491 357.216 C 208.308 356.486,215.812 356.720,216.822 357.538 M303.746 357.629 C 306.993 360.183,304.382 362.400,298.128 362.400 C 292.413 362.400,290.528 361.150,292.026 358.351 C 292.980 356.569,301.714 356.031,303.746 357.629 " stroke="none" fill="#393939" fill-rule="evenodd"></path><path id="path1" d="M66.450 19.740 C 66.066 20.203,65.958 27.993,65.965 54.668 C 65.976 94.154,65.487 90.081,70.270 90.544 C 71.771 90.689,76.240 91.184,80.200 91.644 C 86.399 92.363,90.958 92.522,113.000 92.789 C 143.189 93.154,146.340 93.499,159.800 97.916 C 170.314 101.366,184.719 111.588,190.220 119.500 C 191.145 120.831,192.136 120.603,193.703 118.700 C 198.740 112.582,207.344 105.434,213.400 102.335 C 214.060 101.997,215.140 101.431,215.800 101.076 C 218.071 99.857,221.552 98.400,222.195 98.400 C 222.550 98.400,223.373 98.124,224.024 97.788 C 225.604 96.971,232.180 95.262,236.400 94.572 C 246.278 92.956,248.400 92.842,272.200 92.641 C 298.705 92.418,314.963 91.214,316.841 89.337 C 317.725 88.453,318.099 20.739,317.225 19.865 C 316.949 19.589,315.428 19.671,312.509 20.118 C 310.139 20.480,305.770 20.968,302.800 21.201 C 299.830 21.435,295.780 21.803,293.800 22.019 C 291.820 22.236,279.850 22.579,267.200 22.783 C 254.550 22.987,242.850 23.354,241.200 23.598 C 239.550 23.842,235.770 24.389,232.800 24.814 C 219.577 26.704,210.081 30.078,201.473 35.942 C 199.974 36.964,198.267 38.070,197.680 38.400 C 197.093 38.730,196.430 39.216,196.207 39.480 C 193.604 42.551,191.565 42.944,188.936 40.880 C 185.037 37.819,179.193 33.995,175.200 31.893 C 171.967 30.190,161.448 26.403,159.933 26.396 C 159.420 26.393,158.182 26.143,157.182 25.839 C 156.182 25.536,153.032 24.993,150.182 24.633 C 147.332 24.274,143.740 23.797,142.200 23.574 C 140.660 23.352,129.500 23.000,117.400 22.793 C 91.707 22.354,73.271 21.093,67.772 19.399 C 67.261 19.242,66.755 19.372,66.450 19.740 " stroke="none" fill="#cd2428" fill-rule="evenodd"></path><path id="path2" d="M0.000 200.000 L 0.000 400.000 200.000 400.000 L 400.000 400.000 400.000 200.000 L 400.000 0.000 200.000 0.000 L 0.000 0.000 0.000 200.000 M317.774 18.790 L 318.800 19.180 318.800 54.190 C 318.800 94.135,319.163 90.484,315.144 90.975 C 313.965 91.119,312.190 91.403,311.200 91.606 C 309.527 91.949,306.384 92.299,296.800 93.210 C 294.710 93.409,283.370 93.582,271.600 93.594 C 259.210 93.607,249.105 93.787,247.600 94.022 C 246.170 94.246,243.286 94.591,241.191 94.790 C 239.096 94.988,236.936 95.317,236.391 95.521 C 235.846 95.724,234.500 96.020,233.400 96.178 C 231.378 96.468,229.999 96.841,224.200 98.666 C 217.115 100.896,209.426 105.242,202.798 110.764 C 199.854 113.216,197.476 115.602,194.669 118.918 C 192.051 122.012,192.068 122.019,185.526 115.449 C 177.550 107.437,167.951 101.041,161.080 99.160 C 160.156 98.907,158.500 98.378,157.400 97.983 C 153.729 96.667,145.610 94.801,143.543 94.798 C 142.804 94.798,140.580 94.509,138.600 94.157 C 135.695 93.640,130.016 93.456,109.200 93.200 C 83.191 92.881,79.074 92.659,69.664 91.064 C 64.465 90.184,65.016 94.346,64.893 55.029 C 64.825 33.161,64.929 20.512,65.184 19.843 C 65.630 18.670,67.690 18.418,70.403 19.205 C 71.936 19.650,81.615 20.586,91.000 21.196 C 94.300 21.410,106.180 21.776,117.400 22.009 C 139.086 22.459,143.276 22.698,151.200 23.942 C 159.747 25.284,164.171 26.522,172.600 29.931 C 176.765 31.616,182.862 35.357,188.141 39.466 C 191.490 42.073,191.775 42.083,194.679 39.681 C 203.400 32.471,215.578 26.806,227.000 24.646 C 236.433 22.861,240.956 22.507,260.600 22.009 C 289.441 21.278,291.695 21.200,295.800 20.793 C 298.000 20.575,302.290 20.218,305.334 20.001 C 308.378 19.783,311.042 19.498,311.254 19.367 C 311.632 19.133,314.739 18.540,316.074 18.447 C 316.445 18.421,317.210 18.576,317.774 18.790 M270.458 116.419 C 292.445 118.646,309.728 130.829,315.618 148.253 C 317.823 154.777,317.811 154.467,317.666 202.200 L 317.531 246.200 316.501 247.714 C 313.856 251.604,305.818 257.511,300.571 259.421 C 299.236 259.908,297.616 260.568,296.971 260.890 C 294.849 261.947,290.182 263.169,280.400 265.229 C 273.123 266.760,244.970 265.809,238.636 263.817 C 237.556 263.478,236.116 263.201,235.436 263.202 C 234.756 263.203,233.390 262.936,232.400 262.609 C 231.410 262.282,228.440 261.351,225.800 260.540 C 220.159 258.806,209.182 253.681,208.245 252.342 C 207.420 251.165,207.239 176.921,208.060 176.100 C 208.662 175.498,210.100 176.235,212.669 178.465 C 214.834 180.343,220.405 184.070,222.215 184.850 C 222.867 185.131,223.850 185.659,224.400 186.023 C 225.728 186.901,233.481 190.411,235.000 190.822 C 235.660 191.000,237.423 191.608,238.918 192.173 C 240.413 192.738,242.033 193.206,242.518 193.213 C 243.003 193.220,244.390 193.574,245.600 194.000 C 246.810 194.426,248.610 194.782,249.600 194.792 C 250.590 194.801,252.390 195.075,253.600 195.400 C 256.733 196.241,271.868 196.244,274.636 195.404 C 275.716 195.077,277.189 194.807,277.910 194.804 C 278.630 194.802,280.244 194.440,281.496 194.000 C 282.748 193.560,284.139 193.202,284.586 193.204 C 286.473 193.213,294.800 188.710,294.800 187.680 C 294.800 185.851,289.131 181.829,283.200 179.449 C 282.210 179.051,280.860 178.490,280.200 178.201 C 277.718 177.116,267.805 174.366,263.400 173.541 C 262.300 173.336,259.690 172.825,257.600 172.407 C 255.510 171.989,252.990 171.538,252.000 171.404 C 243.365 170.238,230.082 163.174,222.038 155.471 C 217.474 151.100,211.990 142.090,212.545 139.875 C 213.546 135.890,227.431 125.302,235.800 122.142 C 240.531 120.356,245.679 118.665,247.800 118.200 C 249.120 117.910,251.100 117.474,252.200 117.230 C 257.428 116.073,264.105 115.776,270.458 116.419 M129.000 118.980 C 158.284 124.249,176.604 138.553,181.284 159.800 C 181.810 162.187,182.384 260.352,181.880 261.713 C 181.704 262.188,181.344 262.715,181.080 262.883 C 179.976 263.584,116.718 263.250,115.931 262.538 C 115.228 261.902,115.200 259.297,115.200 195.542 L 115.200 129.207 113.852 125.704 C 113.110 123.777,112.212 121.536,111.856 120.724 C 111.255 119.351,111.257 119.200,111.893 118.564 C 112.723 117.734,123.533 117.997,129.000 118.980 M53.911 275.423 C 55.080 276.241,55.300 287.043,54.171 288.171 C 53.414 288.929,54.548 288.864,43.259 288.801 C 33.119 288.746,32.400 288.893,32.400 291.018 C 32.400 293.479,33.321 293.789,40.256 293.662 C 49.887 293.485,53.821 294.766,54.798 298.394 C 55.031 299.259,55.397 300.074,55.611 300.207 C 56.110 300.515,56.133 316.670,55.635 316.978 C 55.434 317.103,55.152 317.899,55.009 318.749 C 54.724 320.434,53.301 322.012,50.600 323.637 C 49.005 324.597,48.959 324.600,35.368 324.719 C 18.340 324.868,19.800 325.513,19.800 317.846 C 19.800 310.161,18.815 310.742,31.980 310.663 C 43.791 310.592,43.600 310.644,43.600 307.511 C 43.600 305.521,43.956 305.598,34.189 305.491 L 25.800 305.400 23.485 303.851 C 19.920 301.466,19.805 301.052,19.802 290.600 C 19.799 279.493,20.418 277.805,25.304 275.587 C 27.652 274.522,52.421 274.379,53.911 275.423 M75.287 275.506 C 75.908 276.021,77.315 279.869,77.808 282.400 C 77.958 283.170,78.500 285.150,79.012 286.800 C 79.525 288.450,80.068 290.610,80.219 291.600 C 80.371 292.590,80.744 293.888,81.050 294.484 C 81.355 295.081,81.862 296.791,82.176 298.284 C 83.247 303.374,84.395 304.074,85.153 300.100 C 85.394 298.835,86.044 296.295,86.596 294.455 C 87.148 292.615,87.600 290.630,87.600 290.044 C 87.600 289.458,87.868 288.595,88.196 288.127 C 88.524 287.658,88.959 286.133,89.163 284.738 C 89.366 283.342,89.818 281.531,90.166 280.713 C 90.515 279.895,90.800 278.868,90.800 278.432 C 90.800 275.391,92.342 274.800,100.278 274.800 C 106.313 274.800,106.456 274.820,107.436 275.800 L 108.436 276.800 108.318 300.200 L 108.200 323.600 110.500 323.600 L 112.800 323.600 112.800 300.076 C 112.800 280.407,112.893 276.426,113.367 275.776 C 114.285 274.519,122.559 274.381,124.105 275.597 L 125.200 276.458 125.200 284.029 C 125.200 290.492,125.288 291.600,125.800 291.600 C 126.130 291.600,126.400 291.398,126.400 291.152 C 126.400 290.754,128.253 287.588,132.292 281.082 C 133.003 279.937,133.863 278.409,134.203 277.688 C 135.373 275.204,136.688 274.777,142.791 274.895 L 148.182 275.000 148.559 276.075 C 148.859 276.930,148.760 277.423,148.074 278.475 C 147.600 279.204,146.219 281.313,145.006 283.161 C 143.793 285.010,142.800 286.647,142.800 286.799 C 142.800 286.951,142.440 287.402,142.000 287.800 C 141.560 288.198,141.200 288.752,141.200 289.031 C 141.200 289.310,140.781 290.047,140.270 290.669 C 137.104 294.519,136.279 297.363,137.680 299.600 C 138.162 300.370,138.837 301.491,139.178 302.092 C 139.520 302.692,140.565 304.529,141.500 306.173 C 142.435 307.817,143.200 309.351,143.200 309.581 C 143.200 309.812,143.377 310.000,143.593 310.000 C 143.810 310.000,144.441 310.855,144.997 311.900 C 145.552 312.945,146.172 314.070,146.373 314.400 C 152.656 324.710,152.637 324.800,144.171 324.800 C 137.898 324.800,136.611 324.453,135.998 322.594 C 135.754 321.856,135.421 321.195,135.257 321.126 C 134.930 320.987,133.655 318.787,130.899 313.600 C 129.905 311.730,128.487 309.186,127.746 307.948 C 127.006 306.709,126.400 305.404,126.400 305.048 C 126.400 304.318,125.783 304.181,125.387 304.822 C 125.243 305.053,125.149 309.164,125.176 313.956 C 125.238 324.856,125.197 324.939,119.920 324.710 C 116.594 324.565,116.800 323.210,116.800 345.186 C 116.800 373.759,117.131 373.205,100.067 373.194 C 88.358 373.186,89.400 373.857,89.400 366.328 L 89.400 360.226 90.400 359.719 C 91.070 359.379,93.323 359.210,97.220 359.206 C 101.206 359.202,103.191 359.049,103.520 358.720 C 104.060 358.180,104.227 326.163,103.694 325.353 C 103.532 325.107,101.925 324.823,100.122 324.720 C 95.395 324.453,95.600 324.850,95.600 315.951 C 95.600 311.798,95.442 308.400,95.249 308.400 C 94.585 308.400,94.001 309.483,93.610 311.440 C 93.395 312.518,92.952 314.120,92.627 315.000 C 92.301 315.880,92.027 317.064,92.018 317.632 C 91.996 318.899,90.374 322.970,89.471 324.026 C 88.890 324.704,88.264 324.800,84.430 324.800 C 78.781 324.800,77.243 324.247,77.193 322.200 C 77.182 321.760,76.825 320.680,76.400 319.800 C 75.975 318.920,75.625 317.840,75.622 317.400 C 75.619 316.960,75.080 314.800,74.425 312.600 C 73.770 310.400,73.128 308.084,72.998 307.453 C 72.461 304.850,72.200 307.324,72.200 315.019 C 72.200 325.158,72.579 324.547,66.170 324.735 C 62.447 324.844,61.378 324.746,60.583 324.226 L 59.600 323.582 59.600 300.080 C 59.600 280.485,59.694 276.444,60.165 275.771 C 60.861 274.777,74.128 274.544,75.287 275.506 M204.575 275.652 L 205.659 276.504 205.529 282.085 C 205.368 289.039,205.587 288.800,199.373 288.800 C 196.165 288.800,194.774 288.949,194.462 289.326 C 194.166 289.682,193.989 295.297,193.913 306.758 C 193.779 326.871,194.449 324.929,187.712 324.729 C 181.215 324.535,181.839 326.418,181.664 306.491 C 181.568 295.658,181.369 289.619,181.097 289.285 C 180.796 288.916,179.508 288.792,176.539 288.847 C 170.715 288.955,170.800 289.057,170.800 281.938 C 170.800 274.033,168.958 274.800,187.946 274.800 C 203.203 274.800,203.512 274.816,204.575 275.652 M255.833 275.776 C 256.761 277.047,256.670 323.278,255.739 324.051 C 254.585 325.008,245.295 324.819,244.568 323.824 C 243.948 322.976,243.696 277.067,244.306 276.166 C 245.411 274.533,254.696 274.220,255.833 275.776 M271.594 275.197 C 272.991 275.945,273.276 278.028,273.195 286.916 C 273.152 291.582,273.136 295.715,273.159 296.100 C 273.234 297.378,274.196 296.826,275.598 294.700 C 276.989 292.590,277.436 291.843,279.104 288.843 C 280.525 286.287,281.548 285.959,287.703 286.088 L 293.000 286.200 293.120 287.434 C 293.194 288.185,292.998 288.870,292.620 289.183 C 292.279 289.466,292.000 289.839,292.000 290.011 C 292.000 290.183,290.803 292.096,289.339 294.262 C 283.922 302.281,283.784 302.657,285.400 305.038 C 285.950 305.849,286.400 306.729,286.400 306.994 C 286.400 307.259,286.760 307.802,287.200 308.200 C 287.640 308.598,288.000 309.101,288.000 309.317 C 288.000 309.533,288.797 310.919,289.771 312.397 C 290.744 313.875,291.823 315.696,292.168 316.442 C 292.513 317.189,293.252 318.520,293.811 319.400 C 296.969 324.374,296.588 324.800,288.982 324.800 C 281.645 324.800,281.706 324.841,277.729 317.265 C 275.794 313.580,275.588 313.226,274.530 311.785 L 273.660 310.600 273.285 311.600 C 273.079 312.150,272.995 314.490,273.098 316.800 C 273.308 321.490,272.945 323.525,271.783 324.167 C 270.426 324.917,270.220 325.699,270.352 329.600 C 270.513 334.376,270.582 334.463,274.012 334.144 C 278.142 333.760,278.800 334.565,278.800 340.000 C 278.800 345.415,278.157 346.205,273.992 345.907 C 270.304 345.643,270.400 345.448,270.400 353.204 C 270.400 361.385,270.267 361.140,274.789 361.289 C 279.059 361.429,279.068 361.444,278.800 367.738 C 278.553 373.536,279.059 373.193,270.800 373.167 C 263.175 373.144,261.459 372.571,259.052 369.250 L 257.800 367.522 257.689 347.070 C 257.569 324.822,257.577 324.734,259.741 324.019 L 261.000 323.604 261.000 299.967 L 261.000 276.330 261.944 275.565 C 263.007 274.704,270.164 274.431,271.594 275.197 M236.145 286.927 C 242.639 291.186,242.062 306.667,235.313 309.233 C 234.782 309.435,230.580 309.600,225.974 309.600 L 217.600 309.600 217.600 310.567 C 217.600 312.876,217.254 312.800,227.820 312.800 C 239.590 312.800,238.800 312.367,238.800 318.813 C 238.800 325.155,240.189 324.600,224.302 324.600 L 210.941 324.600 209.452 323.600 C 208.633 323.050,207.296 321.520,206.481 320.200 L 205.000 317.800 205.000 305.000 L 205.000 292.200 206.335 290.200 C 209.083 286.081,209.274 286.036,223.619 286.127 C 233.906 286.193,235.147 286.272,236.145 286.927 M325.555 286.428 C 330.828 287.559,331.277 289.155,331.121 306.230 C 330.981 321.496,331.057 321.188,326.915 323.427 L 324.746 324.600 313.673 324.600 L 302.600 324.600 300.920 323.581 C 296.448 320.867,295.879 318.537,296.092 303.800 C 296.345 286.237,296.507 286.074,313.680 286.027 C 319.297 286.012,324.421 286.185,325.555 286.428 M380.800 286.431 C 386.211 287.670,386.800 289.815,386.800 308.291 L 386.800 322.836 385.818 323.818 C 384.477 325.159,377.124 325.315,375.544 324.035 L 374.600 323.271 374.517 311.385 C 374.419 297.435,374.584 298.000,370.587 298.000 C 367.082 298.000,367.251 297.359,367.117 311.156 L 367.000 323.272 366.015 324.069 C 365.140 324.777,364.546 324.851,360.728 324.733 C 354.534 324.541,355.024 325.686,354.883 311.107 C 354.749 297.364,354.918 298.000,351.413 298.000 C 347.396 298.000,347.557 297.453,347.472 311.348 C 347.385 325.613,347.836 324.539,341.856 324.734 C 334.086 324.988,334.411 325.680,334.404 308.874 C 334.398 291.592,335.654 287.316,341.000 286.427 C 343.971 285.933,378.639 285.937,380.800 286.431 M217.600 299.200 L 217.600 300.800 222.592 300.800 C 227.583 300.800,227.585 300.800,227.836 299.801 C 228.355 297.733,228.039 297.600,222.613 297.600 L 217.600 297.600 217.600 299.200 M309.461 299.300 C 309.107 300.224,309.026 302.220,309.181 306.200 L 309.400 311.800 313.766 311.914 C 319.140 312.055,318.742 312.558,318.833 305.492 C 318.931 297.911,318.991 298.000,313.718 298.000 L 309.959 298.000 309.461 299.300 M170.455 324.767 C 171.190 325.676,171.233 326.343,171.164 335.679 C 171.123 341.148,171.174 345.707,171.277 345.810 C 171.719 346.253,175.502 340.932,176.971 337.800 C 178.409 334.736,179.538 334.214,185.044 334.067 C 190.290 333.927,191.200 334.163,191.200 335.662 C 191.200 336.662,189.301 340.400,188.793 340.400 C 188.577 340.400,188.396 340.625,188.392 340.900 C 188.387 341.175,187.622 342.544,186.692 343.942 C 181.983 351.018,182.044 350.840,183.426 353.522 C 184.072 354.775,184.700 355.890,184.823 356.000 C 185.063 356.216,188.368 361.715,190.000 364.616 C 190.550 365.594,191.595 367.401,192.323 368.632 C 194.926 373.034,194.251 373.500,185.710 373.200 L 180.021 373.000 178.621 370.800 C 177.850 369.590,177.216 368.388,177.210 368.129 C 177.205 367.869,176.959 367.416,176.665 367.122 C 176.371 366.828,175.379 365.162,174.461 363.420 C 173.544 361.678,172.434 359.919,171.996 359.511 C 171.058 358.636,171.141 358.017,171.056 366.485 C 170.981 373.809,171.366 373.554,160.880 373.229 C 158.866 373.166,158.800 372.365,158.800 347.889 C 158.800 330.470,158.914 325.207,159.300 324.710 C 160.490 323.180,169.207 323.225,170.455 324.767 M149.600 335.149 C 151.493 335.963,152.553 336.729,153.500 337.965 L 154.800 339.662 154.800 353.774 L 154.800 367.885 153.394 369.726 C 150.870 373.032,150.085 373.200,137.190 373.200 C 121.215 373.200,119.723 372.097,119.843 360.377 C 119.942 350.759,121.524 349.492,133.800 349.200 L 142.200 349.000 142.322 347.951 C 142.500 346.411,141.959 346.326,132.316 346.385 C 120.767 346.454,120.816 346.480,120.805 340.360 C 120.794 333.944,120.476 334.079,135.600 334.051 L 147.000 334.030 149.600 335.149 M224.162 335.400 C 225.741 336.202,226.935 337.177,227.762 338.339 L 229.000 340.077 229.116 353.117 C 229.241 367.203,229.223 367.354,227.061 370.143 C 224.838 373.010,223.851 373.201,211.267 373.196 L 200.200 373.192 198.165 372.025 C 194.085 369.685,192.520 363.187,194.256 355.800 C 195.611 350.037,197.319 349.200,207.728 349.200 C 215.841 349.200,216.800 349.089,216.800 348.153 C 216.800 346.567,215.737 346.385,205.907 346.291 C 194.455 346.181,195.111 346.490,194.875 341.096 C 194.554 333.758,193.828 334.087,210.200 334.153 L 221.800 334.200 224.162 335.400 M254.218 334.982 C 255.151 335.914,255.200 336.203,255.200 340.733 C 255.200 346.666,255.323 346.532,249.639 346.800 L 245.400 347.000 245.200 359.200 C 244.950 374.439,245.498 373.200,239.009 373.200 C 232.184 373.200,232.800 374.898,232.800 356.095 C 232.800 337.818,232.873 337.502,237.600 335.337 C 241.331 333.628,252.623 333.387,254.218 334.982 M310.600 335.151 C 315.592 337.495,315.693 337.905,315.526 355.200 L 315.400 368.200 314.019 369.917 C 311.472 373.085,310.621 373.261,298.060 373.214 C 285.589 373.167,284.276 372.875,282.254 369.694 C 280.852 367.488,280.108 361.954,280.727 358.341 C 280.987 356.825,281.200 355.145,281.200 354.606 C 281.200 353.358,283.278 350.981,285.246 349.976 C 286.603 349.284,287.639 349.200,294.797 349.200 C 301.861 349.200,302.855 349.121,303.076 348.546 C 303.763 346.757,303.073 346.612,292.871 346.400 C 281.031 346.154,281.800 346.568,281.800 340.447 C 281.800 333.724,281.151 334.002,296.600 334.120 C 308.261 334.209,308.656 334.238,310.600 335.151 M133.100 358.557 C 130.917 360.214,132.630 361.200,137.693 361.200 C 142.437 361.200,143.678 360.495,142.094 358.700 C 141.304 357.805,134.238 357.693,133.100 358.557 M206.662 358.731 C 205.046 360.517,206.407 361.200,211.580 361.200 C 216.502 361.200,217.365 360.803,216.393 358.986 C 215.680 357.655,207.822 357.449,206.662 358.731 M293.533 358.988 C 292.698 360.820,293.540 361.200,298.435 361.200 C 303.296 361.200,304.559 360.523,302.970 358.767 C 301.778 357.450,294.152 357.628,293.533 358.988 " stroke="none" fill="#fbfbfb" fill-rule="evenodd"></path><path id="path3" d="M313.520 18.811 C 312.486 18.985,311.467 19.235,311.254 19.367 C 311.042 19.498,308.378 19.783,305.334 20.001 C 302.290 20.218,298.000 20.575,295.800 20.793 C 291.695 21.200,289.441 21.278,260.600 22.009 C 240.956 22.507,236.433 22.861,227.000 24.646 C 215.578 26.806,203.400 32.471,194.679 39.681 C 191.775 42.083,191.490 42.073,188.141 39.466 C 182.862 35.357,176.765 31.616,172.600 29.931 C 157.243 23.721,150.030 22.685,117.400 22.009 C 106.180 21.776,94.300 21.410,91.000 21.196 C 81.615 20.586,71.936 19.650,70.403 19.205 C 67.690 18.418,65.630 18.670,65.184 19.843 C 64.929 20.512,64.825 33.161,64.893 55.029 C 65.016 94.346,64.465 90.184,69.664 91.064 C 79.074 92.659,83.191 92.881,109.200 93.200 C 130.016 93.456,135.695 93.640,138.600 94.157 C 140.580 94.509,142.804 94.798,143.543 94.798 C 145.610 94.801,153.729 96.667,157.400 97.983 C 158.500 98.378,160.156 98.907,161.080 99.160 C 167.951 101.041,177.550 107.437,185.526 115.449 C 192.068 122.019,192.051 122.012,194.669 118.918 C 201.008 111.428,208.363 105.705,216.865 101.647 C 221.889 99.249,229.470 96.741,233.400 96.178 C 234.500 96.020,235.846 95.724,236.391 95.521 C 236.936 95.317,239.096 94.988,241.191 94.790 C 243.286 94.591,246.170 94.246,247.600 94.022 C 249.105 93.787,259.210 93.607,271.600 93.594 C 283.370 93.582,294.710 93.409,296.800 93.210 C 306.384 92.299,309.527 91.949,311.200 91.606 C 312.190 91.403,313.965 91.119,315.144 90.975 C 319.163 90.484,318.800 94.135,318.800 54.190 L 318.800 19.180 317.774 18.790 C 316.629 18.355,316.215 18.357,313.520 18.811 M70.000 20.001 C 74.743 21.173,96.032 22.427,117.400 22.793 C 129.500 23.000,140.660 23.352,142.200 23.574 C 143.740 23.797,147.332 24.274,150.182 24.633 C 153.032 24.993,156.182 25.536,157.182 25.839 C 158.182 26.143,159.420 26.393,159.933 26.396 C 161.448 26.403,171.967 30.190,175.200 31.893 C 179.193 33.995,185.037 37.819,188.936 40.880 C 191.565 42.944,193.604 42.551,196.207 39.480 C 196.430 39.216,197.093 38.730,197.680 38.400 C 198.267 38.070,199.974 36.964,201.473 35.942 C 210.081 30.078,219.577 26.704,232.800 24.814 C 235.770 24.389,239.550 23.842,241.200 23.598 C 242.850 23.354,254.550 22.987,267.200 22.783 C 279.850 22.579,291.820 22.236,293.800 22.019 C 295.780 21.803,299.830 21.435,302.800 21.201 C 305.770 20.968,310.139 20.480,312.509 20.118 C 315.428 19.671,316.949 19.589,317.225 19.865 C 318.099 20.739,317.725 88.453,316.841 89.337 C 314.963 91.214,298.705 92.418,272.200 92.641 C 248.400 92.842,246.278 92.956,236.400 94.572 C 232.180 95.262,225.604 96.971,224.024 97.788 C 223.373 98.124,222.550 98.400,222.195 98.400 C 221.552 98.400,218.071 99.857,215.800 101.076 C 215.140 101.431,214.060 101.997,213.400 102.335 C 207.344 105.434,198.740 112.582,193.703 118.700 C 192.136 120.603,191.145 120.831,190.220 119.500 C 184.719 111.588,170.314 101.366,159.800 97.916 C 146.340 93.499,143.189 93.154,113.000 92.789 C 90.958 92.522,86.399 92.363,80.200 91.644 C 76.240 91.184,71.771 90.689,70.270 90.544 C 65.487 90.081,65.976 94.154,65.965 54.668 C 65.955 18.307,65.928 18.832,67.772 19.399 C 68.227 19.540,69.230 19.810,70.000 20.001 M257.200 116.446 C 255.550 116.634,253.300 116.987,252.200 117.230 C 251.100 117.474,249.120 117.910,247.800 118.200 C 245.679 118.665,240.531 120.356,235.800 122.142 C 227.431 125.302,213.546 135.890,212.545 139.875 C 211.990 142.090,217.474 151.100,222.038 155.471 C 230.082 163.174,243.365 170.238,252.000 171.404 C 252.990 171.538,255.510 171.989,257.600 172.407 C 259.690 172.825,262.300 173.336,263.400 173.541 C 267.805 174.366,277.718 177.116,280.200 178.201 C 280.860 178.490,282.210 179.051,283.200 179.449 C 289.131 181.829,294.800 185.851,294.800 187.680 C 294.800 188.710,286.473 193.213,284.586 193.204 C 284.139 193.202,282.748 193.560,281.496 194.000 C 280.244 194.440,278.630 194.802,277.910 194.804 C 277.189 194.807,275.716 195.077,274.636 195.404 C 271.868 196.244,256.733 196.241,253.600 195.400 C 252.390 195.075,250.590 194.801,249.600 194.792 C 248.610 194.782,246.810 194.426,245.600 194.000 C 244.390 193.574,243.003 193.220,242.518 193.213 C 242.033 193.206,240.413 192.738,238.918 192.173 C 237.423 191.608,235.660 191.000,235.000 190.822 C 233.481 190.411,225.728 186.901,224.400 186.023 C 223.850 185.659,222.867 185.131,222.215 184.850 C 220.405 184.070,214.834 180.343,212.669 178.465 C 210.100 176.235,208.662 175.498,208.060 176.100 C 207.239 176.921,207.420 251.165,208.245 252.342 C 209.182 253.681,220.159 258.806,225.800 260.540 C 228.440 261.351,231.410 262.282,232.400 262.609 C 233.390 262.936,234.756 263.203,235.436 263.202 C 236.116 263.201,237.556 263.478,238.636 263.817 C 244.970 265.809,273.123 266.760,280.400 265.229 C 290.182 263.169,294.849 261.947,296.971 260.890 C 297.616 260.568,299.236 259.908,300.571 259.421 C 305.818 257.511,313.856 251.604,316.501 247.714 L 317.531 246.200 317.666 202.200 C 317.811 154.467,317.823 154.777,315.618 148.253 C 308.462 127.082,283.435 113.456,257.200 116.446 M271.000 117.797 C 283.408 119.463,292.952 122.996,299.371 128.300 C 300.236 129.015,301.150 129.600,301.403 129.600 C 302.018 129.600,307.421 135.364,309.322 138.050 C 315.818 147.225,318.664 162.738,314.974 168.855 C 312.484 172.984,306.040 179.973,301.200 183.795 C 299.550 185.097,297.965 186.487,297.677 186.882 C 297.073 187.713,296.406 187.825,296.387 187.100 C 296.309 184.193,277.381 174.400,271.839 174.400 C 271.246 174.400,270.274 174.155,269.680 173.856 C 269.086 173.556,267.790 173.187,266.800 173.036 C 265.810 172.884,264.190 172.509,263.200 172.202 C 261.001 171.521,254.589 170.400,252.892 170.400 C 252.210 170.400,251.145 170.200,250.526 169.956 C 249.907 169.711,248.500 169.279,247.400 168.995 C 244.493 168.245,240.507 166.682,238.120 165.356 C 231.256 161.542,229.484 160.381,225.854 157.315 C 223.642 155.448,221.162 153.021,220.343 151.924 C 219.524 150.826,218.576 149.719,218.237 149.464 C 217.417 148.847,213.600 141.360,213.600 140.367 C 213.600 139.676,221.902 130.800,222.549 130.800 C 222.683 130.800,223.998 129.974,225.472 128.965 C 230.296 125.662,237.171 122.515,243.800 120.574 C 245.120 120.187,246.470 119.733,246.800 119.564 C 247.441 119.237,251.160 118.593,257.000 117.798 C 262.043 117.112,265.896 117.112,271.000 117.797 M111.893 118.564 C 111.257 119.200,111.255 119.351,111.856 120.724 C 112.212 121.536,113.110 123.777,113.852 125.704 L 115.200 129.207 115.200 195.542 C 115.200 259.297,115.228 261.902,115.931 262.538 C 116.718 263.250,179.976 263.584,181.080 262.883 C 181.344 262.715,181.704 262.188,181.880 261.713 C 182.384 260.352,181.810 162.187,181.284 159.800 C 176.977 140.242,159.992 125.701,135.000 120.175 C 125.869 118.156,113.185 117.272,111.893 118.564 M127.400 120.000 C 129.160 120.435,131.050 120.794,131.600 120.798 C 134.091 120.818,147.279 124.702,149.948 126.203 C 150.527 126.528,151.450 126.975,152.000 127.196 C 165.263 132.516,180.000 149.944,180.000 160.309 C 180.000 160.828,180.176 161.581,180.391 161.983 C 181.041 163.198,180.969 261.246,180.318 261.659 C 179.529 262.160,118.113 262.089,117.174 261.586 C 116.414 261.179,116.400 260.019,116.400 195.534 L 116.400 129.896 115.533 126.648 C 115.056 124.862,114.433 123.123,114.148 122.785 C 113.863 122.447,113.351 121.502,113.010 120.685 L 112.389 119.200 118.295 119.205 C 122.818 119.208,124.949 119.394,127.400 120.000 M25.304 275.587 C 20.418 277.805,19.799 279.493,19.802 290.600 C 19.805 301.052,19.920 301.466,23.485 303.851 L 25.800 305.400 34.189 305.491 C 43.956 305.598,43.600 305.521,43.600 307.511 C 43.600 310.644,43.791 310.592,31.980 310.663 C 18.815 310.742,19.800 310.161,19.800 317.846 C 19.800 325.513,18.340 324.868,35.368 324.719 C 48.959 324.600,49.005 324.597,50.600 323.637 C 53.301 322.012,54.724 320.434,55.009 318.749 C 55.152 317.899,55.434 317.103,55.635 316.978 C 56.133 316.670,56.110 300.515,55.611 300.207 C 55.397 300.074,55.031 299.259,54.798 298.394 C 53.821 294.766,49.887 293.485,40.256 293.662 C 33.321 293.789,32.400 293.479,32.400 291.018 C 32.400 288.893,33.119 288.746,43.259 288.801 C 54.548 288.864,53.414 288.929,54.171 288.171 C 55.300 287.043,55.080 276.241,53.911 275.423 C 52.421 274.379,27.652 274.522,25.304 275.587 M60.165 275.771 C 59.694 276.444,59.600 280.485,59.600 300.080 L 59.600 323.582 60.583 324.226 C 61.378 324.746,62.447 324.844,66.170 324.735 C 72.579 324.547,72.200 325.158,72.200 315.019 C 72.200 307.324,72.461 304.850,72.998 307.453 C 73.128 308.084,73.770 310.400,74.425 312.600 C 75.080 314.800,75.619 316.960,75.622 317.400 C 75.625 317.840,75.975 318.920,76.400 319.800 C 76.825 320.680,77.182 321.760,77.193 322.200 C 77.243 324.247,78.781 324.800,84.430 324.800 C 88.264 324.800,88.890 324.704,89.471 324.026 C 90.374 322.970,91.996 318.899,92.018 317.632 C 92.027 317.064,92.301 315.880,92.627 315.000 C 92.952 314.120,93.395 312.518,93.610 311.440 C 94.001 309.483,94.585 308.400,95.249 308.400 C 95.442 308.400,95.600 311.798,95.600 315.951 C 95.600 324.850,95.395 324.453,100.122 324.720 C 101.925 324.823,103.532 325.107,103.694 325.353 C 104.227 326.163,104.060 358.180,103.520 358.720 C 103.191 359.049,101.206 359.202,97.220 359.206 C 93.323 359.210,91.070 359.379,90.400 359.719 L 89.400 360.226 89.400 366.328 C 89.400 373.857,88.358 373.186,100.067 373.194 C 117.131 373.205,116.800 373.759,116.800 345.186 C 116.800 323.210,116.594 324.565,119.920 324.710 C 125.197 324.939,125.238 324.856,125.176 313.956 C 125.149 309.164,125.243 305.053,125.387 304.822 C 125.783 304.181,126.400 304.318,126.400 305.048 C 126.400 305.404,127.006 306.709,127.746 307.948 C 128.487 309.186,129.905 311.730,130.899 313.600 C 133.655 318.787,134.930 320.987,135.257 321.126 C 135.421 321.195,135.754 321.856,135.998 322.594 C 136.611 324.453,137.898 324.800,144.171 324.800 C 152.637 324.800,152.656 324.710,146.373 314.400 C 146.172 314.070,145.552 312.945,144.997 311.900 C 144.441 310.855,143.810 310.000,143.593 310.000 C 143.377 310.000,143.200 309.812,143.200 309.581 C 143.200 309.351,142.435 307.817,141.500 306.173 C 140.565 304.529,139.520 302.692,139.178 302.092 C 138.837 301.491,138.162 300.370,137.680 299.600 C 136.279 297.363,137.104 294.519,140.270 290.669 C 140.781 290.047,141.200 289.310,141.200 289.031 C 141.200 288.752,141.560 288.198,142.000 287.800 C 142.440 287.402,142.800 286.951,142.800 286.799 C 142.800 286.647,143.793 285.010,145.006 283.161 C 146.219 281.313,147.600 279.204,148.074 278.475 C 148.760 277.423,148.859 276.930,148.559 276.075 L 148.182 275.000 142.791 274.895 C 136.688 274.777,135.373 275.204,134.203 277.688 C 133.863 278.409,133.003 279.937,132.292 281.082 C 128.253 287.588,126.400 290.754,126.400 291.152 C 126.400 291.398,126.130 291.600,125.800 291.600 C 125.288 291.600,125.200 290.492,125.200 284.029 L 125.200 276.458 124.105 275.597 C 122.559 274.381,114.285 274.519,113.367 275.776 C 112.893 276.426,112.800 280.407,112.800 300.076 L 112.800 323.600 110.500 323.600 L 108.200 323.600 108.318 300.200 L 108.436 276.800 107.436 275.800 C 106.456 274.820,106.313 274.800,100.278 274.800 C 92.342 274.800,90.800 275.391,90.800 278.432 C 90.800 278.868,90.515 279.895,90.166 280.713 C 89.818 281.531,89.366 283.342,89.163 284.738 C 88.959 286.133,88.524 287.658,88.196 288.127 C 87.868 288.595,87.600 289.458,87.600 290.044 C 87.600 290.630,87.148 292.615,86.596 294.455 C 86.044 296.295,85.394 298.835,85.153 300.100 C 84.395 304.074,83.247 303.374,82.176 298.284 C 81.862 296.791,81.355 295.081,81.050 294.484 C 80.744 293.888,80.371 292.590,80.219 291.600 C 80.068 290.610,79.525 288.450,79.012 286.800 C 78.500 285.150,77.958 283.170,77.808 282.400 C 77.315 279.869,75.908 276.021,75.287 275.506 C 74.128 274.544,60.861 274.777,60.165 275.771 M171.600 275.600 C 170.877 276.323,170.800 276.933,170.800 281.938 C 170.800 289.057,170.715 288.955,176.539 288.847 C 179.508 288.792,180.796 288.916,181.097 289.285 C 181.369 289.619,181.568 295.658,181.664 306.491 C 181.839 326.418,181.215 324.535,187.712 324.729 C 194.449 324.929,193.779 326.871,193.913 306.758 C 193.989 295.297,194.166 289.682,194.462 289.326 C 194.774 288.949,196.165 288.800,199.373 288.800 C 205.587 288.800,205.368 289.039,205.529 282.085 L 205.659 276.504 204.575 275.652 C 202.931 274.359,172.889 274.311,171.600 275.600 M245.400 275.260 C 244.960 275.519,244.468 275.927,244.306 276.166 C 243.696 277.067,243.948 322.976,244.568 323.824 C 245.295 324.819,254.585 325.008,255.739 324.051 C 256.670 323.278,256.761 277.047,255.833 275.776 C 255.141 274.829,246.829 274.417,245.400 275.260 M261.944 275.565 L 261.000 276.330 261.000 299.967 L 261.000 323.604 259.741 324.019 C 257.577 324.734,257.569 324.822,257.689 347.070 L 257.800 367.522 259.052 369.250 C 261.459 372.571,263.175 373.144,270.800 373.167 C 279.059 373.193,278.553 373.536,278.800 367.738 C 279.068 361.444,279.059 361.429,274.789 361.289 C 270.267 361.140,270.400 361.385,270.400 353.204 C 270.400 345.448,270.304 345.643,273.992 345.907 C 278.157 346.205,278.800 345.415,278.800 340.000 C 278.800 334.565,278.142 333.760,274.012 334.144 C 270.582 334.463,270.513 334.376,270.352 329.600 C 270.220 325.699,270.426 324.917,271.783 324.167 C 272.945 323.525,273.308 321.490,273.098 316.800 C 272.995 314.490,273.079 312.150,273.285 311.600 L 273.660 310.600 274.530 311.785 C 275.588 313.226,275.794 313.580,277.729 317.265 C 281.706 324.841,281.645 324.800,288.982 324.800 C 296.588 324.800,296.969 324.374,293.811 319.400 C 293.252 318.520,292.513 317.189,292.168 316.442 C 291.823 315.696,290.744 313.875,289.771 312.397 C 288.797 310.919,288.000 309.533,288.000 309.317 C 288.000 309.101,287.640 308.598,287.200 308.200 C 286.760 307.802,286.400 307.259,286.400 306.994 C 286.400 306.729,285.950 305.849,285.400 305.038 C 283.784 302.657,283.922 302.281,289.339 294.262 C 290.803 292.096,292.000 290.183,292.000 290.011 C 292.000 289.839,292.279 289.466,292.620 289.183 C 292.998 288.870,293.194 288.185,293.120 287.434 L 293.000 286.200 287.703 286.088 C 281.548 285.959,280.525 286.287,279.104 288.843 C 277.436 291.843,276.989 292.590,275.598 294.700 C 274.196 296.826,273.234 297.378,273.159 296.100 C 273.136 295.715,273.152 291.582,273.195 286.916 C 273.276 278.028,272.991 275.945,271.594 275.197 C 270.164 274.431,263.007 274.704,261.944 275.565 M53.651 276.260 C 54.524 277.310,54.661 285.742,53.826 287.017 L 53.182 288.000 43.206 288.000 C 31.601 288.000,31.343 288.079,31.721 291.541 C 32.041 294.470,32.232 294.539,39.879 294.455 C 53.981 294.300,55.200 295.420,55.200 308.531 C 55.200 323.495,54.536 324.000,34.875 324.000 C 19.135 324.000,20.600 324.636,20.600 317.800 C 20.600 311.041,19.575 311.600,31.960 311.600 C 44.192 311.600,44.000 311.658,44.000 307.991 C 44.000 304.814,43.964 304.800,35.126 304.798 C 21.663 304.794,20.467 303.669,20.461 291.000 C 20.456 279.868,21.552 277.181,26.622 275.891 C 29.004 275.285,53.114 275.614,53.651 276.260 M74.875 276.165 C 75.246 276.331,75.729 277.216,75.949 278.133 C 76.490 280.389,78.117 286.457,79.613 291.800 C 80.291 294.220,81.187 297.681,81.604 299.492 C 83.019 305.627,85.583 306.571,85.598 300.963 C 85.599 300.502,85.967 299.062,86.416 297.763 C 86.866 296.463,87.596 293.870,88.039 292.000 C 89.631 285.291,89.915 284.156,90.790 281.000 C 92.381 275.267,91.775 275.600,100.627 275.600 C 108.485 275.600,107.637 272.556,107.576 300.554 C 107.521 326.230,107.307 324.383,110.326 324.394 C 113.877 324.406,113.575 326.651,113.594 300.107 C 113.605 284.479,113.749 276.491,114.024 276.215 C 114.670 275.568,122.011 275.474,123.200 276.098 L 124.200 276.622 124.400 284.611 C 124.645 294.412,125.020 294.955,127.922 289.712 C 128.870 288.000,130.169 285.790,130.809 284.800 C 132.190 282.665,133.550 280.370,134.457 278.648 C 135.871 275.961,136.316 275.800,142.334 275.800 C 149.417 275.800,149.419 275.637,142.183 286.200 C 141.278 287.520,140.429 288.899,140.296 289.264 C 140.162 289.629,139.218 291.122,138.198 292.581 C 135.772 296.053,135.560 297.386,137.039 299.881 C 137.664 300.936,138.452 302.290,138.788 302.888 C 140.264 305.514,143.338 310.765,144.473 312.600 C 146.136 315.289,147.210 317.156,147.924 318.600 C 148.250 319.260,148.766 320.090,149.071 320.445 C 150.031 321.564,150.417 323.508,149.731 323.771 C 148.855 324.107,138.269 324.039,137.800 323.694 C 137.146 323.213,134.908 319.772,134.585 318.748 C 134.420 318.227,133.861 317.243,133.342 316.562 C 132.824 315.881,132.400 315.206,132.400 315.060 C 132.400 314.915,131.166 312.592,129.657 309.898 C 128.148 307.204,126.783 304.585,126.623 304.077 C 126.416 303.423,126.079 303.189,125.466 303.277 C 124.611 303.398,124.597 303.525,124.400 313.315 C 124.169 324.751,124.486 323.985,119.980 323.994 C 115.644 324.003,116.000 322.140,116.000 344.817 C 116.000 373.378,116.224 373.007,99.116 372.728 C 89.413 372.570,90.031 373.018,90.013 366.129 C 89.996 359.682,89.618 360.000,97.297 360.000 C 105.695 360.000,104.800 362.169,104.800 341.818 C 104.800 322.583,105.102 324.000,101.009 324.000 C 96.294 324.000,96.400 324.206,96.400 315.003 C 96.400 310.642,96.219 306.777,95.987 306.166 L 95.574 305.080 94.587 306.418 C 94.044 307.153,93.600 308.041,93.600 308.391 C 93.600 308.740,93.321 310.010,92.979 311.213 C 92.637 312.416,92.014 314.776,91.593 316.457 C 91.172 318.138,90.382 320.523,89.836 321.757 L 88.844 324.000 84.051 324.000 C 78.834 324.000,78.220 323.773,77.773 321.672 C 77.647 321.082,77.256 319.792,76.903 318.805 C 76.550 317.817,76.030 316.017,75.749 314.805 C 72.734 301.836,71.600 301.692,71.600 314.276 C 71.600 324.479,71.889 324.003,65.700 323.994 C 63.335 323.991,61.130 323.817,60.800 323.608 C 59.997 323.101,59.880 276.568,60.681 276.074 C 61.304 275.689,73.990 275.770,74.875 276.165 M203.911 276.223 C 204.746 276.808,204.800 277.137,204.800 281.691 C 204.800 288.112,204.903 288.000,198.987 288.000 C 192.837 288.000,193.438 286.074,193.200 306.561 L 193.000 323.800 188.332 323.800 C 185.765 323.800,183.515 323.650,183.332 323.467 C 183.150 323.284,182.910 315.484,182.800 306.135 C 182.564 286.050,183.216 288.000,176.738 288.000 C 171.436 288.000,171.600 288.209,171.600 281.446 C 171.600 277.100,171.692 276.386,172.300 276.032 C 173.567 275.294,202.837 275.471,203.911 276.223 M255.191 276.230 C 256.016 277.057,255.767 322.888,254.934 323.498 C 254.115 324.097,246.515 324.187,245.600 323.609 C 245.078 323.279,245.000 320.205,245.000 299.927 L 245.000 276.624 246.000 276.099 C 247.204 275.467,254.533 275.571,255.191 276.230 M271.226 276.014 C 271.961 276.407,272.000 276.962,272.005 287.114 C 272.011 297.211,272.154 299.617,272.747 299.588 C 273.039 299.573,275.651 296.196,276.107 295.242 C 276.275 294.889,276.944 293.790,277.593 292.800 C 278.242 291.810,279.137 290.337,279.581 289.526 C 280.930 287.066,281.621 286.800,286.656 286.800 C 293.167 286.800,293.328 287.036,290.107 291.837 C 289.235 293.137,287.837 295.280,287.000 296.600 C 286.163 297.920,285.035 299.670,284.493 300.489 C 283.351 302.213,283.478 304.204,284.808 305.407 C 285.244 305.801,285.600 306.445,285.600 306.838 C 285.600 307.231,285.762 307.653,285.961 307.776 C 286.314 307.994,291.600 316.613,291.600 316.971 C 291.600 317.072,292.335 318.326,293.233 319.758 C 295.728 323.738,295.682 323.781,288.795 323.900 C 285.608 323.955,282.820 323.865,282.600 323.700 C 281.991 323.243,280.591 321.151,279.711 319.383 C 276.787 313.505,272.986 307.683,272.432 308.234 C 272.304 308.361,272.110 311.825,272.000 315.932 L 271.800 323.400 270.536 323.957 L 269.271 324.514 269.487 329.157 C 269.762 335.072,269.859 335.200,274.048 335.200 C 277.854 335.200,278.000 335.377,278.000 340.000 C 278.000 344.608,277.845 344.800,274.117 344.800 C 269.523 344.800,269.600 344.661,269.600 352.973 C 269.600 361.659,269.570 361.600,274.009 361.600 C 277.922 361.600,278.000 361.708,278.000 367.085 C 278.000 373.006,278.126 372.907,270.852 372.727 C 263.785 372.553,261.638 371.748,259.581 368.505 L 258.400 366.643 258.400 346.695 C 258.400 325.395,258.387 325.534,260.454 324.691 L 261.674 324.193 261.623 300.796 C 261.564 273.028,261.051 275.600,266.649 275.600 C 268.741 275.600,270.801 275.786,271.226 276.014 M210.958 286.365 C 209.189 286.807,207.867 287.904,206.335 290.200 L 205.000 292.200 205.000 305.000 L 205.000 317.800 206.481 320.200 C 207.296 321.520,208.633 323.050,209.452 323.600 L 210.941 324.600 224.302 324.600 C 240.189 324.600,238.800 325.155,238.800 318.813 C 238.800 312.367,239.590 312.800,227.820 312.800 C 217.254 312.800,217.600 312.876,217.600 310.567 L 217.600 309.600 225.974 309.600 C 234.919 309.600,235.625 309.485,237.473 307.733 C 239.892 305.439,240.400 303.744,240.400 297.966 C 240.400 291.290,239.589 289.185,236.145 286.927 C 234.946 286.140,213.749 285.668,210.958 286.365 M301.901 286.565 C 297.038 287.873,296.290 290.094,296.092 303.800 C 295.879 318.537,296.448 320.867,300.920 323.581 L 302.600 324.600 313.673 324.600 L 324.746 324.600 326.915 323.427 C 331.057 321.188,330.981 321.496,331.121 306.230 C 331.310 285.513,331.711 285.978,313.680 286.027 C 307.000 286.045,303.185 286.220,301.901 286.565 M341.000 286.427 C 335.654 287.316,334.398 291.592,334.404 308.874 C 334.411 325.680,334.086 324.988,341.856 324.734 C 347.836 324.539,347.385 325.613,347.472 311.348 C 347.557 297.453,347.396 298.000,351.413 298.000 C 354.918 298.000,354.749 297.364,354.883 311.107 C 355.024 325.686,354.534 324.541,360.728 324.733 C 364.546 324.851,365.140 324.777,366.015 324.069 L 367.000 323.272 367.117 311.156 C 367.251 297.359,367.082 298.000,370.587 298.000 C 374.584 298.000,374.419 297.435,374.517 311.385 L 374.600 323.271 375.544 324.035 C 377.124 325.315,384.477 325.159,385.818 323.818 L 386.800 322.836 386.800 308.291 C 386.800 284.620,388.402 286.000,361.000 286.057 C 351.100 286.077,342.100 286.244,341.000 286.427 M235.326 287.249 C 238.461 288.859,239.600 291.672,239.600 297.800 C 239.600 305.076,237.497 308.760,233.299 308.833 C 232.254 308.852,228.265 308.897,224.434 308.933 L 217.467 309.000 217.105 310.086 C 216.855 310.835,216.908 311.517,217.276 312.286 L 217.810 313.400 227.472 313.600 C 238.718 313.833,237.764 313.380,237.935 318.569 C 238.128 324.458,239.256 324.000,224.559 324.000 C 209.418 324.000,209.081 323.905,206.744 319.000 L 205.601 316.600 205.600 304.887 C 205.600 291.107,205.995 289.592,210.200 287.267 C 211.318 286.648,234.126 286.632,235.326 287.249 M326.479 287.510 C 330.585 289.425,330.898 290.835,330.729 306.630 L 330.600 318.660 329.487 320.341 C 327.325 323.607,325.639 324.000,313.801 324.000 C 297.304 324.000,296.803 323.487,296.827 306.600 C 296.849 291.323,297.359 289.177,301.400 287.369 C 303.394 286.476,324.517 286.596,326.479 287.510 M381.520 287.366 C 385.738 289.576,385.962 290.615,385.977 308.000 C 385.991 325.056,386.416 323.762,380.749 323.913 C 374.975 324.067,375.418 325.083,375.316 311.439 C 375.270 305.257,375.225 299.967,375.216 299.682 C 375.170 298.175,373.296 297.200,370.447 297.200 C 366.161 297.200,366.400 296.425,366.400 310.340 C 366.400 325.009,366.797 324.000,361.026 324.000 C 355.366 324.000,355.813 325.146,355.733 310.457 C 355.656 296.326,355.930 297.200,351.577 297.200 C 349.500 297.200,348.679 297.380,347.876 298.012 L 346.843 298.824 346.722 311.027 C 346.580 325.256,347.111 323.985,341.300 323.994 C 335.131 324.003,335.597 325.225,335.615 309.100 C 335.634 291.587,336.466 287.882,340.562 287.074 C 343.157 286.562,380.494 286.828,381.520 287.366 M217.396 297.462 C 216.704 298.154,216.851 300.577,217.635 301.384 C 218.068 301.830,227.642 301.695,228.115 301.236 C 228.826 300.546,228.888 298.145,228.212 297.470 C 227.232 296.489,218.374 296.483,217.396 297.462 M308.796 298.500 C 308.101 299.640,308.003 300.524,308.001 305.677 C 308.000 312.995,307.835 312.800,314.000 312.800 C 320.166 312.800,320.000 312.997,320.000 305.666 C 320.000 300.792,319.883 299.608,319.323 298.789 C 318.283 297.270,318.081 297.213,313.694 297.206 L 309.588 297.200 308.796 298.500 M227.856 298.201 C 228.704 300.411,227.916 300.800,222.592 300.800 L 217.600 300.800 217.600 299.200 L 217.600 297.600 222.613 297.600 C 226.702 297.600,227.668 297.711,227.856 298.201 M318.193 298.792 C 318.951 299.630,319.172 310.983,318.444 311.714 C 318.272 311.887,316.167 311.977,313.766 311.914 L 309.400 311.800 309.181 306.200 C 309.026 302.220,309.107 300.224,309.461 299.300 L 309.959 298.000 313.718 298.000 C 316.955 298.000,317.575 298.110,318.193 298.792 M160.600 323.863 C 158.786 324.327,158.800 324.138,158.800 347.889 C 158.800 372.365,158.866 373.166,160.880 373.229 C 171.366 373.554,170.981 373.809,171.056 366.485 C 171.141 358.017,171.058 358.636,171.996 359.511 C 172.434 359.919,173.544 361.678,174.461 363.420 C 175.379 365.162,176.371 366.828,176.665 367.122 C 176.959 367.416,177.205 367.869,177.210 368.129 C 177.216 368.388,177.850 369.590,178.621 370.800 L 180.021 373.000 185.710 373.200 C 194.251 373.500,194.926 373.034,192.323 368.632 C 191.595 367.401,190.550 365.594,190.000 364.616 C 188.368 361.715,185.063 356.216,184.823 356.000 C 184.700 355.890,184.072 354.775,183.426 353.522 C 182.044 350.840,181.983 351.018,186.692 343.942 C 187.622 342.544,188.387 341.175,188.392 340.900 C 188.396 340.625,188.577 340.400,188.793 340.400 C 189.301 340.400,191.200 336.662,191.200 335.662 C 191.200 334.163,190.290 333.927,185.044 334.067 C 179.538 334.214,178.409 334.736,176.971 337.800 C 175.502 340.932,171.719 346.253,171.277 345.810 C 171.174 345.707,171.123 341.148,171.164 335.679 C 171.256 323.194,171.557 323.832,165.536 323.729 C 163.261 323.690,161.040 323.751,160.600 323.863 M169.771 325.168 C 170.396 325.859,170.459 326.960,170.397 336.268 C 170.316 348.517,170.273 347.600,170.925 347.600 C 171.689 347.600,176.351 340.949,177.594 338.085 C 178.673 335.600,179.708 335.200,185.058 335.200 L 190.000 335.200 190.000 336.331 C 190.000 336.954,189.433 338.349,188.740 339.431 C 188.047 340.514,187.086 342.030,186.604 342.800 C 186.122 343.570,185.384 344.723,184.964 345.361 C 180.750 351.766,180.624 350.262,186.148 359.502 C 194.486 373.451,194.442 372.803,187.051 372.795 C 180.083 372.787,180.608 373.178,175.802 364.400 C 173.938 360.994,172.332 358.289,171.308 356.827 C 170.641 355.874,170.286 358.378,170.246 364.332 C 170.188 372.838,170.209 372.803,165.438 372.795 C 161.217 372.787,160.539 372.575,160.025 371.100 C 159.446 369.439,159.436 326.254,160.014 325.174 C 160.636 324.012,168.720 324.007,169.771 325.168 M122.939 334.438 C 121.317 334.907,120.798 336.347,120.805 340.360 C 120.816 346.480,120.767 346.454,132.316 346.385 C 141.959 346.326,142.500 346.411,142.322 347.951 L 142.200 349.000 133.800 349.200 C 121.524 349.492,119.942 350.759,119.843 360.377 C 119.723 372.097,121.215 373.200,137.190 373.200 C 150.085 373.200,150.870 373.032,153.394 369.726 L 154.800 367.885 154.800 353.774 L 154.800 339.662 153.500 337.965 C 152.553 336.729,151.493 335.963,149.600 335.149 L 147.000 334.030 135.600 334.051 C 129.330 334.063,123.632 334.237,122.939 334.438 M197.268 334.281 C 195.293 334.540,194.666 336.323,194.875 341.096 C 195.111 346.490,194.455 346.181,205.907 346.291 C 215.737 346.385,216.800 346.567,216.800 348.153 C 216.800 349.089,215.841 349.200,207.728 349.200 C 197.319 349.200,195.611 350.037,194.256 355.800 C 192.520 363.187,194.085 369.685,198.165 372.025 L 200.200 373.192 211.267 373.196 C 223.851 373.201,224.838 373.010,227.061 370.143 C 229.223 367.354,229.241 367.203,229.116 353.117 L 229.000 340.077 227.762 338.339 C 226.935 337.177,225.741 336.202,224.162 335.400 L 221.800 334.200 210.200 334.153 C 203.820 334.127,198.001 334.185,197.268 334.281 M240.400 334.394 C 233.126 335.962,232.800 336.892,232.800 356.095 C 232.800 374.898,232.184 373.200,239.009 373.200 C 245.498 373.200,244.950 374.439,245.200 359.200 L 245.400 347.000 249.639 346.800 C 255.323 346.532,255.200 346.666,255.200 340.733 C 255.200 333.978,255.207 333.984,247.518 334.046 C 244.373 334.071,241.170 334.228,240.400 334.394 M283.786 334.369 C 282.067 335.090,281.800 335.906,281.800 340.447 C 281.800 346.568,281.031 346.154,292.871 346.400 C 303.073 346.612,303.763 346.757,303.076 348.546 C 302.855 349.121,301.861 349.200,294.797 349.200 C 287.639 349.200,286.603 349.284,285.246 349.976 C 283.278 350.981,281.200 353.358,281.200 354.606 C 281.200 355.145,280.987 356.825,280.727 358.341 C 280.108 361.954,280.852 367.488,282.254 369.694 C 284.276 372.875,285.589 373.167,298.060 373.214 C 310.621 373.261,311.472 373.085,314.019 369.917 L 315.400 368.200 315.526 355.200 C 315.693 337.905,315.592 337.495,310.600 335.151 C 308.480 334.156,285.869 333.497,283.786 334.369 M254.314 340.443 C 254.454 346.010,254.462 346.000,249.613 346.000 C 244.028 346.000,244.400 345.089,244.400 358.763 C 244.400 366.094,244.240 370.739,243.961 371.540 L 243.522 372.800 239.543 372.800 C 235.851 372.800,235.493 372.729,234.582 371.818 L 233.600 370.836 233.600 356.268 C 233.600 335.288,233.414 335.608,245.800 335.209 C 254.638 334.923,254.168 334.635,254.314 340.443 M149.669 335.931 C 154.161 337.539,154.510 338.998,154.328 355.400 L 154.200 367.000 153.124 368.830 C 152.223 370.362,151.630 370.837,149.470 371.755 L 146.891 372.851 136.945 372.726 C 125.699 372.584,124.377 372.289,122.206 369.444 C 119.700 366.158,119.882 355.210,122.487 352.498 C 124.983 349.901,125.363 349.811,134.366 349.694 C 143.886 349.570,145.359 348.992,142.645 346.442 C 141.712 345.566,141.490 345.546,132.704 345.584 C 121.570 345.632,122.059 345.863,121.939 340.511 C 121.812 334.808,120.818 335.194,135.562 335.231 C 145.935 335.257,148.085 335.364,149.669 335.931 M224.476 336.324 C 225.967 337.058,226.563 337.671,227.376 339.303 L 228.400 341.357 228.400 353.773 L 228.400 366.189 227.300 368.362 C 225.381 372.155,223.950 372.571,212.293 372.726 C 196.904 372.931,194.400 371.323,194.400 361.241 C 194.400 351.377,196.724 349.564,209.263 349.647 C 216.974 349.698,217.203 349.652,217.194 348.076 C 217.181 345.800,217.251 345.817,206.634 345.600 C 199.362 345.452,196.705 345.266,196.320 344.881 C 195.570 344.130,195.604 336.764,196.362 335.848 C 197.359 334.643,221.907 335.058,224.476 336.324 M309.828 335.692 C 311.115 336.036,312.138 336.694,313.234 337.883 L 314.800 339.582 314.800 353.449 L 314.800 367.316 313.700 369.060 C 311.618 372.361,309.383 372.869,297.600 372.722 C 286.256 372.581,284.945 372.244,282.603 368.866 L 281.400 367.131 281.414 361.266 C 281.437 350.858,283.012 349.600,296.017 349.600 C 304.676 349.600,305.935 349.085,303.530 346.526 C 302.672 345.612,302.547 345.600,293.756 345.600 C 282.152 345.600,282.800 345.893,282.800 340.638 C 282.800 337.371,282.937 336.320,283.429 335.829 C 284.252 335.005,306.824 334.889,309.828 335.692 M132.400 358.000 C 129.945 360.455,131.953 362.000,137.600 362.000 C 142.286 362.000,143.600 361.513,143.600 359.777 C 143.600 357.700,142.436 357.200,137.600 357.200 C 133.733 357.200,133.103 357.297,132.400 358.000 M206.519 357.680 C 204.974 358.426,205.059 360.825,206.656 361.553 C 207.891 362.116,215.389 362.141,216.426 361.586 C 216.990 361.284,217.200 360.745,217.200 359.600 C 217.200 358.455,216.990 357.916,216.426 357.614 C 215.421 357.076,207.663 357.127,206.519 357.680 M293.042 358.122 C 290.550 360.614,292.829 362.119,298.817 361.936 C 304.163 361.773,305.647 360.660,303.833 358.176 C 302.843 356.821,294.386 356.778,293.042 358.122 M142.094 358.700 C 142.529 359.194,142.610 359.665,142.369 360.300 C 141.682 362.103,132.400 361.511,132.400 359.664 C 132.400 357.943,140.697 357.118,142.094 358.700 M216.393 358.986 C 217.365 360.803,216.502 361.200,211.580 361.200 C 207.447 361.200,206.000 360.812,206.000 359.703 C 206.000 357.705,215.361 357.059,216.393 358.986 M302.970 358.767 C 304.559 360.523,303.296 361.200,298.435 361.200 C 293.540 361.200,292.698 360.820,293.533 358.988 C 294.152 357.628,301.778 357.450,302.970 358.767 " stroke="none" fill="#8e8e8e" fill-rule="evenodd"></path><path id="path4" d="M257.000 117.798 C 251.160 118.593,247.441 119.237,246.800 119.564 C 246.470 119.733,245.120 120.187,243.800 120.574 C 237.171 122.515,230.296 125.662,225.472 128.965 C 223.998 129.974,222.683 130.800,222.549 130.800 C 221.902 130.800,213.600 139.676,213.600 140.367 C 213.600 141.360,217.417 148.847,218.237 149.464 C 218.576 149.719,219.524 150.826,220.343 151.924 C 221.162 153.021,223.642 155.448,225.854 157.315 C 229.484 160.381,231.256 161.542,238.120 165.356 C 240.507 166.682,244.493 168.245,247.400 168.995 C 248.500 169.279,249.907 169.711,250.526 169.956 C 251.145 170.200,252.210 170.400,252.892 170.400 C 254.589 170.400,261.001 171.521,263.200 172.202 C 264.190 172.509,265.810 172.884,266.800 173.036 C 267.790 173.187,269.086 173.556,269.680 173.856 C 270.274 174.155,271.246 174.400,271.839 174.400 C 277.381 174.400,296.309 184.193,296.387 187.100 C 296.406 187.825,297.073 187.713,297.677 186.882 C 297.965 186.487,299.550 185.097,301.200 183.795 C 306.040 179.973,312.484 172.984,314.974 168.855 C 318.664 162.738,315.818 147.225,309.322 138.050 C 307.421 135.364,302.018 129.600,301.403 129.600 C 301.150 129.600,300.236 129.015,299.371 128.300 C 289.894 120.470,271.279 115.856,257.000 117.798 M113.010 120.685 C 113.351 121.502,113.863 122.447,114.148 122.785 C 114.433 123.123,115.056 124.862,115.533 126.648 L 116.400 129.896 116.400 195.534 C 116.400 260.019,116.414 261.179,117.174 261.586 C 118.113 262.089,179.529 262.160,180.318 261.659 C 180.969 261.246,181.041 163.198,180.391 161.983 C 180.176 161.581,180.000 160.828,180.000 160.309 C 180.000 149.944,165.263 132.516,152.000 127.196 C 151.450 126.975,150.527 126.528,149.948 126.203 C 147.279 124.702,134.091 120.818,131.600 120.798 C 131.050 120.794,129.160 120.435,127.400 120.000 C 124.949 119.394,122.818 119.208,118.295 119.205 L 112.389 119.200 113.010 120.685 M315.600 156.024 C 315.600 156.477,315.420 156.736,315.200 156.600 C 314.980 156.464,314.800 156.093,314.800 155.776 C 314.800 155.459,314.980 155.200,315.200 155.200 C 315.420 155.200,315.600 155.571,315.600 156.024 M26.622 275.891 C 21.552 277.181,20.456 279.868,20.461 291.000 C 20.467 303.669,21.663 304.794,35.126 304.798 C 43.964 304.800,44.000 304.814,44.000 307.991 C 44.000 311.658,44.192 311.600,31.960 311.600 C 19.575 311.600,20.600 311.041,20.600 317.800 C 20.600 324.636,19.135 324.000,34.875 324.000 C 54.536 324.000,55.200 323.495,55.200 308.531 C 55.200 295.420,53.981 294.300,39.879 294.455 C 32.232 294.539,32.041 294.470,31.721 291.541 C 31.343 288.079,31.601 288.000,43.206 288.000 L 53.182 288.000 53.826 287.017 C 54.661 285.742,54.524 277.310,53.651 276.260 C 53.114 275.614,29.004 275.285,26.622 275.891 M60.835 275.922 C 60.596 276.001,60.400 276.242,60.400 276.457 C 60.400 276.672,60.615 276.714,60.878 276.552 C 61.668 276.063,73.960 276.083,74.632 276.574 C 74.960 276.814,75.475 277.998,75.777 279.205 C 77.182 284.822,78.777 290.692,79.144 291.600 C 79.781 293.172,79.658 291.614,78.970 289.400 C 78.340 287.370,76.678 281.172,75.949 278.133 C 75.729 277.216,75.246 276.331,74.875 276.165 C 74.201 275.864,61.659 275.647,60.835 275.922 M93.277 275.885 C 92.770 275.982,92.204 276.453,92.019 276.931 C 91.248 278.926,89.521 285.563,89.663 285.988 C 89.794 286.381,91.454 280.771,92.159 277.553 C 92.343 276.715,92.688 276.457,93.894 276.258 C 96.251 275.868,105.732 275.970,106.400 276.391 C 107.132 276.854,107.529 318.395,106.831 321.588 C 106.432 323.416,106.910 324.412,108.176 324.394 C 108.409 324.391,108.358 324.235,108.063 324.047 C 107.623 323.768,107.535 319.533,107.576 300.554 C 107.621 279.979,107.556 277.300,106.991 276.500 C 106.371 275.624,96.875 275.198,93.277 275.885 M114.500 276.012 L 113.600 276.374 113.561 298.487 C 113.540 310.649,113.553 321.259,113.589 322.064 C 113.637 323.107,113.447 323.651,112.928 323.952 C 112.342 324.293,112.321 324.378,112.824 324.388 C 114.085 324.412,114.943 323.414,114.451 322.495 C 113.597 320.899,113.836 276.842,114.700 276.487 C 115.673 276.088,123.060 276.126,123.467 276.532 C 123.650 276.715,123.890 280.585,124.000 285.132 L 124.200 293.400 125.200 293.513 C 126.080 293.613,126.414 293.229,127.977 290.313 C 128.955 288.491,129.945 286.790,130.177 286.533 C 130.410 286.277,131.140 285.142,131.800 284.012 C 136.511 275.945,136.441 275.998,142.189 276.006 C 148.180 276.014,148.159 275.989,145.608 280.150 C 144.450 282.038,143.254 283.789,142.951 284.041 C 142.648 284.292,142.400 284.732,142.400 285.018 C 142.400 285.304,141.975 286.047,141.456 286.669 C 140.937 287.291,140.172 288.409,139.756 289.152 C 138.948 290.598,138.856 290.746,136.885 293.778 C 135.225 296.334,135.188 298.111,136.750 300.268 C 137.383 301.141,138.024 302.247,138.176 302.725 C 138.328 303.204,138.673 303.821,138.943 304.098 C 139.213 304.374,140.217 306.040,141.175 307.800 C 142.133 309.560,143.050 311.090,143.213 311.200 C 143.376 311.310,143.801 312.030,144.156 312.800 C 144.512 313.570,145.324 315.010,145.961 316.000 C 150.758 323.453,150.712 323.600,143.625 323.600 L 138.025 323.600 136.573 321.332 C 135.775 320.084,135.022 318.779,134.899 318.432 C 134.776 318.084,134.479 317.551,134.238 317.247 C 133.770 316.656,130.920 311.492,127.146 304.400 C 126.404 303.006,125.964 302.600,125.194 302.600 L 124.200 302.600 124.000 312.715 C 123.768 324.432,124.135 323.585,119.287 323.594 C 116.957 323.598,115.916 323.753,115.777 324.116 C 115.668 324.399,115.529 333.804,115.467 345.016 C 115.406 356.227,115.229 365.940,115.075 366.600 C 114.826 367.665,114.858 367.642,115.367 366.400 C 115.836 365.253,115.945 361.379,115.970 344.980 C 116.004 322.124,115.645 324.003,119.980 323.994 C 124.486 323.985,124.169 324.751,124.400 313.315 C 124.597 303.525,124.611 303.398,125.466 303.277 C 126.079 303.189,126.416 303.423,126.623 304.077 C 126.783 304.585,128.148 307.204,129.657 309.898 C 131.166 312.592,132.400 314.915,132.400 315.060 C 132.400 315.206,132.824 315.881,133.342 316.562 C 133.861 317.243,134.420 318.227,134.585 318.748 C 134.908 319.772,137.146 323.213,137.800 323.694 C 138.269 324.039,148.855 324.107,149.731 323.771 C 150.417 323.508,150.031 321.564,149.071 320.445 C 148.766 320.090,148.250 319.260,147.924 318.600 C 147.210 317.156,146.136 315.289,144.473 312.600 C 143.338 310.765,140.264 305.514,138.788 302.888 C 138.452 302.290,137.664 300.936,137.039 299.881 C 135.560 297.386,135.772 296.053,138.198 292.581 C 139.218 291.122,140.162 289.629,140.296 289.264 C 140.429 288.899,141.278 287.520,142.183 286.200 C 149.419 275.637,149.417 275.800,142.334 275.800 C 136.316 275.800,135.871 275.961,134.457 278.648 C 133.550 280.370,132.190 282.665,130.809 284.800 C 130.169 285.790,128.870 288.000,127.922 289.712 C 125.020 294.955,124.645 294.412,124.400 284.611 L 124.200 276.622 123.200 276.117 C 122.049 275.536,115.871 275.461,114.500 276.012 M172.300 276.032 C 171.692 276.386,171.600 277.100,171.600 281.446 C 171.600 288.209,171.436 288.000,176.738 288.000 C 183.216 288.000,182.564 286.050,182.800 306.135 C 182.910 315.484,183.150 323.284,183.332 323.467 C 183.515 323.650,185.765 323.800,188.332 323.800 L 193.000 323.800 193.096 322.800 C 193.191 321.815,193.186 321.813,192.809 322.700 C 192.448 323.547,192.192 323.600,188.475 323.600 C 182.699 323.600,183.200 325.302,183.200 305.669 C 183.200 285.827,183.787 287.600,177.214 287.600 C 171.851 287.600,172.000 287.776,172.000 281.440 C 172.000 275.435,170.433 275.947,188.380 276.086 C 205.748 276.220,204.151 275.663,204.336 281.648 C 204.520 287.612,204.532 287.600,198.618 287.600 C 193.947 287.600,193.195 287.847,193.206 289.380 C 193.211 290.114,193.265 290.095,193.717 289.200 C 194.206 288.232,194.370 288.196,198.795 288.086 C 204.938 287.933,204.800 288.078,204.800 281.761 C 204.800 277.135,204.748 276.809,203.911 276.223 C 202.837 275.471,173.567 275.294,172.300 276.032 M246.000 276.099 L 245.000 276.624 245.000 299.927 C 245.000 320.205,245.078 323.279,245.600 323.609 C 246.515 324.187,254.115 324.097,254.934 323.498 C 255.767 322.888,256.016 277.057,255.191 276.230 C 254.533 275.571,247.204 275.467,246.000 276.099 M262.209 276.500 C 261.644 277.300,261.579 280.001,261.623 300.796 L 261.674 324.193 260.454 324.691 C 258.387 325.534,258.400 325.395,258.400 346.695 L 258.400 366.643 259.581 368.505 C 261.638 371.748,263.785 372.553,270.852 372.727 C 278.126 372.907,278.000 373.006,278.000 367.085 C 278.000 361.700,277.914 361.581,274.086 361.679 L 271.000 361.759 273.988 361.899 C 277.615 362.068,277.586 362.029,277.594 366.824 C 277.603 372.297,277.859 372.111,270.577 371.919 C 263.470 371.731,261.874 371.235,260.133 368.670 L 259.000 367.000 258.882 347.600 C 258.742 324.690,258.628 325.864,261.050 325.186 L 262.882 324.673 262.541 323.037 C 261.878 319.854,262.117 276.823,262.800 276.391 C 263.462 275.973,269.276 275.870,270.700 276.252 L 271.600 276.493 271.600 287.421 C 271.600 297.696,271.840 300.400,272.753 300.400 C 273.360 300.400,277.475 294.278,279.964 289.669 C 281.179 287.420,281.803 287.204,286.795 287.306 C 292.876 287.430,292.835 286.851,287.365 295.200 C 286.284 296.850,285.335 298.380,285.256 298.600 C 285.176 298.820,284.660 299.670,284.109 300.489 C 282.950 302.211,283.070 304.197,284.408 305.407 C 284.844 305.801,285.200 306.401,285.200 306.740 C 285.200 307.292,285.809 308.350,287.999 311.600 C 288.369 312.150,289.438 313.950,290.373 315.600 C 291.308 317.250,292.487 319.320,292.993 320.200 C 293.499 321.080,294.035 322.205,294.184 322.700 L 294.454 323.600 288.704 323.600 L 282.954 323.600 281.678 321.790 C 280.976 320.794,280.133 319.399,279.805 318.690 C 279.476 317.980,278.671 316.500,278.015 315.400 C 277.359 314.300,276.373 312.494,275.823 311.386 C 275.273 310.278,274.284 308.855,273.625 308.224 L 272.427 307.076 272.014 308.164 C 271.786 308.763,271.600 312.278,271.600 315.977 C 271.600 323.302,271.644 323.160,269.150 323.962 L 267.701 324.429 268.450 325.899 C 269.012 327.000,269.200 328.236,269.200 330.823 C 269.200 335.274,269.504 335.600,273.651 335.600 C 277.469 335.600,277.600 335.746,277.600 340.000 C 277.600 344.266,277.477 344.400,273.582 344.400 C 269.126 344.400,269.200 344.255,269.200 352.958 C 269.200 359.733,269.467 361.600,270.437 361.600 C 270.661 361.600,270.565 361.200,270.223 360.711 C 269.718 359.990,269.600 358.524,269.600 352.973 C 269.600 344.661,269.523 344.800,274.117 344.800 C 277.845 344.800,278.000 344.608,278.000 340.000 C 278.000 335.377,277.854 335.200,274.048 335.200 C 269.859 335.200,269.762 335.072,269.487 329.157 L 269.271 324.514 270.536 323.957 L 271.800 323.400 272.000 315.932 C 272.110 311.825,272.304 308.361,272.432 308.234 C 272.986 307.683,276.787 313.505,279.711 319.383 C 280.591 321.151,281.991 323.243,282.600 323.700 C 282.820 323.865,285.608 323.955,288.795 323.900 C 295.682 323.781,295.728 323.738,293.233 319.758 C 292.335 318.326,291.600 317.072,291.600 316.971 C 291.600 316.613,286.314 307.994,285.961 307.776 C 285.762 307.653,285.600 307.231,285.600 306.838 C 285.600 306.445,285.244 305.801,284.808 305.407 C 283.478 304.204,283.351 302.213,284.493 300.489 C 285.035 299.670,286.163 297.920,287.000 296.600 C 287.837 295.280,289.235 293.137,290.107 291.837 C 293.328 287.036,293.167 286.800,286.656 286.800 C 281.621 286.800,280.930 287.066,279.581 289.526 C 279.137 290.337,278.242 291.810,277.593 292.800 C 276.944 293.790,276.275 294.889,276.107 295.242 C 275.651 296.196,273.039 299.573,272.747 299.588 C 272.154 299.617,272.011 297.211,272.005 287.114 C 271.999 274.583,272.472 275.600,266.649 275.600 C 263.160 275.600,262.793 275.674,262.209 276.500 M53.189 276.385 C 53.991 276.892,54.308 284.690,53.597 286.407 L 53.103 287.600 43.077 287.600 C 31.373 287.600,31.200 287.653,31.200 291.225 C 31.200 294.863,31.314 294.905,41.295 294.956 L 49.931 295.000 51.629 296.200 C 54.147 297.980,54.458 299.244,54.486 307.800 C 54.537 323.542,54.457 323.605,34.543 323.602 C 23.189 323.600,21.657 323.526,21.443 322.967 C 20.913 321.586,21.179 312.915,21.767 312.428 C 22.174 312.090,25.214 311.979,32.573 312.035 C 44.807 312.127,44.400 312.267,44.400 307.962 C 44.400 304.456,44.882 304.634,34.800 304.400 C 25.302 304.179,24.620 304.003,22.217 301.147 L 21.200 299.939 21.200 290.192 L 21.200 280.445 22.500 279.066 C 23.924 277.556,25.161 276.815,27.000 276.371 C 28.796 275.938,52.502 275.950,53.189 276.385 M253.524 276.245 C 255.279 276.596,255.213 275.673,255.214 299.911 C 255.214 326.046,255.727 323.603,250.238 323.594 C 244.857 323.585,245.418 326.151,245.282 300.915 C 245.154 277.053,245.180 276.539,246.513 276.281 C 247.953 276.002,252.202 275.980,253.524 276.245 M60.189 300.115 C 60.199 320.218,60.278 323.279,60.800 323.609 C 61.130 323.817,63.335 323.991,65.700 323.994 C 71.889 324.003,71.600 324.479,71.600 314.276 C 71.600 303.350,72.260 302.066,74.252 309.117 C 74.794 311.033,75.390 313.140,75.577 313.800 C 75.818 314.647,75.930 314.761,75.959 314.186 C 75.982 313.739,75.640 312.348,75.200 311.096 C 74.760 309.844,74.400 308.488,74.400 308.081 C 74.400 306.185,73.122 303.554,72.260 303.678 C 71.071 303.849,70.851 305.515,70.823 314.526 C 70.810 318.902,70.627 322.376,70.386 322.826 C 69.876 323.779,61.519 324.021,60.924 323.100 C 60.746 322.825,60.505 312.340,60.389 299.800 L 60.177 277.000 60.189 300.115 M88.700 289.071 C 87.749 292.288,87.857 293.188,88.836 290.206 C 89.269 288.889,89.572 287.562,89.511 287.257 C 89.450 286.952,89.085 287.769,88.700 289.071 M210.200 287.267 C 205.995 289.592,205.600 291.107,205.600 304.887 L 205.601 316.600 206.744 319.000 C 209.081 323.905,209.418 324.000,224.559 324.000 C 239.256 324.000,238.128 324.458,237.935 318.569 C 237.764 313.380,238.717 313.833,227.479 313.600 L 217.822 313.400 217.317 312.400 C 217.039 311.850,216.809 311.637,216.806 311.926 C 216.783 313.957,216.991 314.000,226.952 314.000 C 238.079 314.000,237.600 313.797,237.600 318.505 C 237.600 320.179,237.424 322.010,237.210 322.574 L 236.820 323.600 224.656 323.600 L 212.491 323.600 210.346 322.480 C 208.397 321.463,208.102 321.125,207.131 318.780 L 206.061 316.200 206.031 304.950 C 205.982 286.927,205.491 287.449,222.618 287.284 L 234.635 287.168 236.295 288.370 C 239.699 290.836,240.037 303.897,236.777 307.023 L 235.549 308.200 226.689 308.322 C 217.764 308.446,216.773 308.609,216.825 309.949 C 216.843 310.402,216.958 310.334,217.203 309.725 C 217.547 308.871,217.727 308.850,224.478 308.862 C 235.856 308.881,234.991 308.987,236.797 307.356 C 241.498 303.108,240.534 289.924,235.326 287.249 C 234.126 286.632,211.318 286.648,210.200 287.267 M301.400 287.369 C 298.508 288.663,297.500 290.400,297.154 294.686 C 296.754 299.657,296.772 314.367,297.182 317.000 C 297.368 318.199,297.516 313.553,297.549 305.400 C 297.610 290.725,297.548 291.178,299.800 288.954 C 301.453 287.321,302.416 287.200,313.770 287.200 C 326.896 287.200,327.622 287.391,329.735 291.400 C 330.104 292.099,330.375 292.330,330.384 291.955 C 330.410 290.910,328.078 288.256,326.479 287.510 C 324.517 286.596,303.394 286.476,301.400 287.369 M340.562 287.074 C 336.466 287.882,335.634 291.587,335.615 309.100 C 335.597 325.225,335.131 324.003,341.300 323.994 C 347.111 323.985,346.580 325.256,346.722 311.027 L 346.843 298.824 347.876 298.012 C 348.679 297.380,349.500 297.200,351.577 297.200 C 355.930 297.200,355.656 296.326,355.733 310.457 C 355.813 325.146,355.366 324.000,361.026 324.000 C 366.797 324.000,366.400 325.009,366.400 310.340 C 366.400 296.425,366.161 297.200,370.447 297.200 C 373.296 297.200,375.170 298.175,375.216 299.682 C 375.225 299.967,375.270 305.257,375.316 311.439 C 375.418 325.083,374.975 324.067,380.749 323.913 C 386.416 323.762,385.991 325.056,385.977 308.000 C 385.962 290.615,385.738 289.576,381.520 287.366 C 380.494 286.828,343.157 286.562,340.562 287.074 M381.520 287.764 C 383.372 288.732,384.877 290.642,385.231 292.473 C 385.617 294.467,385.633 320.403,385.250 322.200 L 384.994 323.400 380.830 323.515 C 375.582 323.659,376.013 324.735,376.006 311.487 C 375.998 296.931,375.947 296.800,370.255 296.800 C 366.922 296.800,366.022 297.289,365.969 299.129 C 365.953 299.718,365.965 304.724,365.997 310.254 C 366.034 316.542,365.890 320.925,365.612 321.954 L 365.169 323.600 361.234 323.600 C 356.067 323.600,356.476 324.712,356.327 310.259 C 356.178 295.807,356.534 296.800,351.505 296.800 C 348.703 296.800,348.258 296.906,347.382 297.782 L 346.400 298.764 346.400 310.338 C 346.400 324.597,346.773 323.686,341.011 323.517 C 335.556 323.357,335.939 324.620,336.125 307.400 C 336.307 290.620,336.564 289.381,340.200 287.765 C 342.016 286.957,379.975 286.957,381.520 287.764 M79.613 293.400 C 79.606 293.840,79.961 295.280,80.403 296.600 C 80.845 297.920,81.405 300.069,81.647 301.375 C 82.434 305.620,85.004 307.251,85.413 303.765 C 85.593 302.228,85.590 302.223,85.197 303.462 C 84.321 306.227,82.515 304.174,81.622 299.397 C 81.101 296.609,79.632 292.225,79.613 293.400 M87.646 293.430 C 87.621 293.886,87.150 295.583,86.600 297.200 C 86.050 298.817,85.612 300.604,85.627 301.170 C 85.647 301.917,85.794 301.706,86.163 300.400 C 86.443 299.410,86.984 297.564,87.365 296.298 C 87.746 295.032,87.976 293.682,87.875 293.298 C 87.727 292.733,87.684 292.758,87.646 293.430 M330.578 305.000 C 330.578 311.820,330.632 314.666,330.699 311.325 C 330.766 307.984,330.766 302.404,330.699 298.925 C 330.633 295.446,330.578 298.180,330.578 305.000 M216.974 297.384 C 216.321 298.379,216.438 300.128,217.261 301.700 C 217.952 303.018,227.290 302.720,228.371 301.346 C 229.494 299.919,229.465 297.831,228.311 297.023 C 226.645 295.855,217.790 296.137,216.974 297.384 M228.212 297.470 C 228.888 298.145,228.826 300.546,228.115 301.236 C 227.642 301.695,218.068 301.830,217.635 301.384 C 216.851 300.577,216.704 298.154,217.396 297.462 C 218.374 296.483,227.232 296.489,228.212 297.470 M309.292 297.068 C 307.978 297.596,307.600 299.493,307.600 305.565 C 307.600 313.145,307.955 313.591,314.000 313.591 C 320.067 313.591,320.400 313.166,320.400 305.415 C 320.400 299.378,320.380 299.238,319.364 298.031 L 318.329 296.800 314.064 296.832 C 311.719 296.849,309.571 296.955,309.292 297.068 M318.223 297.506 C 319.749 298.566,320.000 299.717,320.000 305.666 C 320.000 312.997,320.166 312.800,314.000 312.800 C 307.835 312.800,308.000 312.995,308.001 305.677 C 308.003 300.524,308.101 299.640,308.796 298.500 L 309.588 297.200 313.694 297.206 C 315.952 297.209,317.990 297.344,318.223 297.506 M95.786 303.047 C 95.401 303.681,94.755 304.682,94.352 305.271 C 93.949 305.860,93.528 307.120,93.417 308.071 C 93.248 309.523,93.269 309.597,93.550 308.537 C 93.733 307.842,94.267 306.787,94.735 306.192 L 95.586 305.110 95.993 306.181 C 96.218 306.774,96.400 310.713,96.400 315.003 C 96.400 324.206,96.294 324.000,101.009 324.000 C 105.102 324.000,104.800 322.583,104.800 341.818 C 104.800 362.169,105.695 360.000,97.297 360.000 C 89.618 360.000,89.996 359.682,90.013 366.129 C 90.031 373.018,89.413 372.570,99.116 372.728 C 108.468 372.881,111.039 372.415,113.378 370.142 C 114.160 369.383,114.800 368.611,114.800 368.428 C 114.800 368.244,114.125 368.769,113.300 369.593 C 111.249 371.643,109.241 372.000,99.780 372.000 C 89.988 372.000,90.400 372.256,90.400 366.174 C 90.400 360.085,90.019 360.400,97.370 360.400 C 106.175 360.400,105.240 362.694,105.109 341.400 L 105.000 323.800 101.410 323.600 C 96.495 323.326,96.687 323.819,96.960 312.200 C 97.187 302.533,96.998 301.056,95.786 303.047 M92.483 311.497 C 92.200 312.324,91.702 314.080,91.376 315.400 C 91.051 316.720,90.314 319.105,89.739 320.700 L 88.693 323.600 83.960 323.600 C 78.625 323.600,78.817 323.711,77.768 320.018 C 76.992 317.288,76.037 314.913,76.018 315.664 C 76.008 316.030,76.348 317.290,76.773 318.464 C 77.198 319.639,77.648 321.082,77.773 321.672 C 78.220 323.772,78.833 324.000,84.051 324.000 L 88.844 324.000 89.840 321.749 C 90.387 320.510,91.106 318.305,91.437 316.849 C 91.768 315.392,92.319 313.448,92.662 312.529 C 93.005 311.611,93.221 310.664,93.142 310.426 C 93.063 310.188,92.766 310.670,92.483 311.497 M330.032 318.433 C 329.978 319.508,327.484 322.040,325.800 322.729 C 324.460 323.278,322.513 323.384,313.800 323.384 C 302.060 323.384,301.389 323.256,298.999 320.571 C 298.230 319.707,297.600 319.188,297.600 319.419 C 297.600 320.097,300.474 322.581,302.114 323.319 C 304.856 324.553,323.181 324.318,326.137 323.011 C 328.445 321.990,330.712 319.418,330.272 318.320 C 330.126 317.957,330.054 317.991,330.032 318.433 M109.905 324.683 C 110.402 324.779,111.122 324.775,111.505 324.675 C 111.887 324.575,111.480 324.496,110.600 324.501 C 109.720 324.505,109.407 324.587,109.905 324.683 M160.014 325.174 C 159.436 326.254,159.446 369.439,160.025 371.100 C 160.539 372.575,161.217 372.787,165.438 372.795 C 170.209 372.803,170.188 372.838,170.246 364.332 C 170.286 358.378,170.641 355.874,171.308 356.827 C 172.332 358.289,173.938 360.994,175.802 364.400 C 180.608 373.178,180.083 372.787,187.051 372.795 C 194.442 372.803,194.486 373.451,186.148 359.502 C 180.624 350.262,180.750 351.766,184.964 345.361 C 185.384 344.723,186.122 343.570,186.604 342.800 C 187.086 342.030,188.047 340.514,188.740 339.431 C 189.433 338.349,190.000 336.954,190.000 336.331 L 190.000 335.200 185.058 335.200 C 179.708 335.200,178.673 335.600,177.594 338.085 C 176.351 340.949,171.689 347.600,170.925 347.600 C 170.273 347.600,170.316 348.517,170.397 336.268 C 170.479 323.817,170.679 324.358,166.038 324.479 L 163.000 324.559 165.865 324.696 C 169.885 324.889,169.679 324.236,169.633 336.685 C 169.611 342.578,169.729 347.598,169.896 347.840 C 170.516 348.738,171.410 348.655,172.105 347.635 C 173.818 345.120,177.263 339.672,177.991 338.326 C 179.299 335.911,180.058 335.600,184.640 335.600 C 190.413 335.600,190.610 336.042,187.144 341.234 C 186.185 342.671,185.220 344.126,185.000 344.467 C 184.780 344.809,184.256 345.608,183.836 346.244 C 180.315 351.572,180.164 350.180,185.195 358.800 C 186.800 361.550,188.233 363.890,188.379 364.000 C 188.525 364.110,189.017 364.920,189.473 365.800 C 189.928 366.680,190.702 368.166,191.193 369.101 C 192.634 371.849,192.389 372.001,186.513 371.994 C 183.701 371.991,181.211 371.856,180.981 371.694 C 180.392 371.281,178.749 368.924,177.800 367.130 C 177.360 366.299,176.216 364.129,175.258 362.309 C 174.300 360.489,173.202 358.640,172.817 358.200 C 172.433 357.760,172.008 357.085,171.872 356.700 C 171.736 356.315,171.385 356.000,171.093 356.000 C 169.771 356.000,169.600 356.918,169.600 364.031 C 169.600 372.502,169.863 372.074,164.751 371.916 C 161.228 371.806,160.994 371.745,160.517 370.800 C 159.534 368.855,159.800 326.200,160.800 325.200 C 161.405 324.595,161.457 324.400,161.014 324.400 C 160.692 324.400,160.242 324.748,160.014 325.174 M245.733 335.195 C 241.956 335.308,238.774 335.492,238.662 335.604 C 238.550 335.717,241.687 335.742,245.634 335.660 C 254.488 335.476,254.000 335.186,254.000 340.635 C 254.000 345.611,254.011 345.600,249.026 345.600 C 243.700 345.600,244.001 344.817,243.995 358.700 C 243.988 373.333,244.431 372.000,239.569 372.000 C 233.483 372.000,233.928 373.347,234.091 355.401 C 234.238 339.120,234.264 338.941,236.683 337.100 C 237.478 336.495,237.934 336.000,237.695 336.000 C 236.728 336.000,234.833 338.124,234.236 339.877 C 233.701 341.447,233.600 344.045,233.600 356.289 L 233.600 370.836 234.582 371.818 C 235.493 372.729,235.851 372.800,239.543 372.800 L 243.522 372.800 243.961 371.540 C 244.240 370.739,244.400 366.094,244.400 358.763 C 244.400 345.089,244.028 346.000,249.613 346.000 C 254.462 346.000,254.454 346.010,254.314 340.443 C 254.168 334.636,254.646 334.928,245.733 335.195 M122.590 336.011 C 121.976 336.690,121.870 337.419,121.939 340.511 C 122.059 345.863,121.570 345.632,132.704 345.584 C 141.490 345.546,141.712 345.566,142.645 346.442 C 145.359 348.992,143.886 349.570,134.366 349.694 C 125.363 349.811,124.983 349.901,122.487 352.498 C 119.882 355.210,119.700 366.158,122.206 369.444 C 124.377 372.289,125.699 372.584,136.945 372.726 L 146.891 372.851 149.470 371.755 C 151.630 370.837,152.223 370.362,153.124 368.830 L 154.200 367.000 154.328 355.400 C 154.559 334.584,155.207 335.281,135.562 335.231 C 123.758 335.201,123.298 335.229,122.590 336.011 M196.349 335.864 C 195.603 336.765,195.580 344.139,196.320 344.881 C 196.705 345.266,199.362 345.452,206.634 345.600 C 217.251 345.817,217.181 345.800,217.194 348.076 C 217.203 349.652,216.974 349.698,209.263 349.647 C 196.724 349.564,194.400 351.377,194.400 361.241 C 194.400 371.323,196.904 372.931,212.293 372.726 C 223.950 372.571,225.381 372.155,227.300 368.362 L 228.400 366.189 228.400 353.773 C 228.400 341.365,228.399 341.356,227.410 339.371 C 226.544 337.633,224.761 335.997,223.738 336.001 C 223.552 336.002,223.959 336.344,224.642 336.760 C 227.685 338.616,227.786 339.125,227.917 353.200 L 228.035 365.800 226.917 368.000 C 225.027 371.721,224.705 371.800,211.400 371.800 C 196.498 371.800,196.181 371.647,195.144 363.936 C 194.817 361.505,194.828 359.946,195.190 357.703 C 196.291 350.875,196.648 350.668,207.800 350.392 C 217.384 350.154,217.600 350.102,217.600 348.019 C 217.600 345.322,217.400 345.270,206.531 345.127 C 195.259 344.979,196.409 345.480,196.304 340.671 C 196.188 335.370,194.960 335.800,210.207 335.800 C 217.339 335.800,222.864 335.678,222.487 335.528 C 220.807 334.863,196.923 335.170,196.349 335.864 M283.429 335.829 C 282.937 336.320,282.800 337.371,282.800 340.638 C 282.800 345.893,282.152 345.600,293.756 345.600 C 302.547 345.600,302.672 345.612,303.530 346.526 C 305.935 349.085,304.676 349.600,296.017 349.600 C 285.133 349.600,281.459 351.354,281.650 356.460 C 281.699 357.778,281.705 357.774,281.972 356.200 C 282.339 354.038,282.942 353.038,284.673 351.716 L 286.135 350.600 294.807 350.400 C 305.143 350.162,306.546 349.527,303.971 346.254 L 303.142 345.200 293.800 345.200 C 282.572 345.200,283.200 345.483,283.200 340.433 C 283.200 335.277,282.337 335.600,296.101 335.600 C 311.178 335.600,313.818 336.379,314.506 341.026 L 314.680 342.200 314.740 340.891 C 314.826 339.013,312.318 336.358,309.828 335.692 C 306.824 334.889,284.252 335.005,283.429 335.829 M149.097 336.207 C 153.606 337.546,153.800 338.290,153.800 354.266 L 153.800 367.132 152.599 368.840 C 150.609 371.671,149.221 371.964,137.677 371.983 C 122.052 372.010,121.181 371.438,121.139 361.141 C 121.114 354.769,121.541 353.431,124.200 351.541 L 125.800 350.404 134.239 350.302 C 143.398 350.191,144.000 350.050,144.000 348.021 C 144.000 345.415,143.161 345.197,132.700 345.094 C 127.511 345.042,123.116 344.850,122.933 344.667 C 122.105 343.840,122.287 337.313,123.162 336.438 C 124.273 335.327,145.496 335.137,149.097 336.207 M132.695 357.077 C 130.782 357.576,130.544 361.006,132.355 361.976 C 133.683 362.686,141.850 362.517,143.014 361.754 C 144.625 360.698,144.357 358.223,142.526 357.260 C 141.686 356.818,134.221 356.679,132.695 357.077 M206.491 357.216 C 204.758 357.912,204.545 360.696,206.138 361.812 C 207.566 362.812,216.057 362.642,217.005 361.595 C 218.037 360.454,217.947 358.448,216.822 357.538 C 215.812 356.720,208.308 356.486,206.491 357.216 M293.326 357.203 C 291.475 357.949,291.120 359.957,292.582 361.418 C 295.090 363.926,304.800 362.481,304.800 359.600 C 304.800 357.154,297.325 355.592,293.326 357.203 M142.800 358.000 C 145.255 360.455,143.247 362.000,137.600 362.000 C 132.914 362.000,131.600 361.513,131.600 359.777 C 131.600 357.700,132.764 357.200,137.600 357.200 C 141.467 357.200,142.097 357.297,142.800 358.000 M216.426 357.614 C 216.990 357.916,217.200 358.455,217.200 359.600 C 217.200 361.714,216.538 362.000,211.645 362.000 C 206.315 362.000,204.976 361.292,205.504 358.753 C 205.795 357.350,214.280 356.466,216.426 357.614 M303.833 358.176 C 305.647 360.660,304.163 361.773,298.817 361.936 C 292.829 362.119,290.550 360.614,293.042 358.122 C 294.386 356.778,302.843 356.821,303.833 358.176 M281.414 362.594 C 281.726 371.565,283.290 372.544,297.600 372.722 C 311.207 372.892,314.929 371.336,314.744 365.558 L 314.687 363.800 314.441 365.800 C 313.784 371.144,311.485 372.006,297.965 371.983 C 283.364 371.958,282.375 371.378,281.629 362.400 L 281.246 357.800 281.414 362.594 " stroke="none" fill="#747474" fill-rule="evenodd"></path></g></svg>